<svg width="40" height="14" fill="none" xmlns="http://www.w3.org/2000/svg"><path d="M17.281 3.102l.107.056c.026 0 .053.028.053.056v.251a.367.367 0 01-.16.056c-.213 0-.346-.168-.346-.42 0-.25.133-.446.373-.446.053 0 .186 0 .32.111l.053-.167c-.16-.056-.24-.084-.373-.084-.32 0-.587.196-.587.587 0 .363.24.559.56.559.24 0 .373-.084.4-.112v-.503h-.347l-.053.056zm1.36-.447l-.027-.14h-.746l-.027.056.027.028c.026.028.026.028.026.084v.95h.72v-.14h-.48V3.13h.427v-.14h-.427v-.335h.507zm20.178-.895c-1.866.168-11.435 1.118-11.889 1.174-.826.112-1.2.335-1.492.838-1.013 1.65-1.466 2.46-2.772 3.55-.054.055-.054.083.053.083 1.466-.251 2.559-.503 4.665-1.006.08-.028.08-.028 0-.056a59.36 59.36 0 01-2.24-.167c-.133 0-.133-.056-.08-.14.16-.196.294-.224.694-.224.373 0 1.28 0 2.185.028 1.813 0 3.625-.475 5.838-1.257.027 0 .027-.028 0-.028-3.119.084-6.93.112-7.544.112-.08 0-.08-.056-.026-.14.133-.168.293-.252.826-.307.72-.056 6.904-.364 7.917-.42 1.2-.055 1.919-.251 2.905-1.034a9.24 9.24 0 001.013-.922c.053-.056.053-.084-.053-.084zM19.627 3.27l-.587-.755h-.213l-.027.056.054.028c.027.028.053.028.053.084v.95h.16v-.727l.533.727h.187V2.515h-.16v.754zm-2.293 4.05c-1.306-1.09-1.759-1.9-2.772-3.549-.293-.503-.666-.726-1.492-.838-.454-.056-9.996-.978-11.889-1.174-.106 0-.106.028-.026.084.32.364.72.699.986.922.986.783 1.706.979 2.905 1.034 1.013.028 7.197.364 7.917.42.533.028.666.14.826.307.054.084.08.14-.026.14-.614 0-4.399-.028-7.544-.112-.027 0-.027.028 0 .028 2.24.782 4.025 1.257 5.838 1.257.906 0 1.839-.028 2.185-.028.4 0 .56.028.693.224.054.084.054.14-.08.14a64.07 64.07 0 01-2.239.167c-.08 0-.08.028 0 .056 2.08.531 3.2.755 4.665 1.006.107 0 .107-.028.053-.084zm4.132-4.359c-.133-.084-.267-.112-.267-.223 0-.056.054-.112.16-.112.107 0 .214.056.32.084l.027-.168a1.098 1.098 0 00-.32-.056c-.267 0-.4.14-.4.307 0 .168.107.252.267.336.133.056.266.112.266.223 0 .084-.053.14-.186.14-.107 0-.24-.056-.32-.084l-.027.196c.054 0 .213.056.347.056.213 0 .426-.112.426-.308-.026-.223-.16-.307-.293-.39zm1.52 0c-.134-.084-.267-.112-.267-.223 0-.056.053-.112.16-.112.106 0 .213.056.32.084l.026-.168a1.097 1.097 0 00-.32-.056c-.266 0-.426.14-.426.307 0 .168.107.252.267.336.133.056.266.112.266.223 0 .084-.053.14-.186.14-.107 0-.24-.056-.32-.084l-.027.196c.053 0 .213.056.347.056.213 0 .426-.112.426-.308 0-.223-.133-.307-.267-.39zM39.911.56c-.214.028-8.663.391-13.728.587-1.253.056-1.626.028-2.666-.308C21.973.335 20.587 0 20 0c-.586 0-1.973.335-3.518.838-1.04.364-1.413.392-2.666.308C8.75.95.302.586.088.559c-.106 0-.106.028-.053.084.347.363.533.475 1.253.587 1.68.251 10.129.866 12.021 1.145 1.2.196 1.466.615 1.973 1.481 1.306 2.236 2.372 3.298 4.611 4.471.027.056.08.056.107.056.027 0 .08 0 .107-.028 2.239-1.173 3.305-2.263 4.611-4.47.48-.867.773-1.286 1.973-1.482 1.865-.28 10.342-.894 12.021-1.146.72-.111.906-.223 1.253-.586.053-.056.053-.112-.053-.112zM24.158 2.766c-.373 2.068-2.239 3.829-4.078 4.975-.053.027-.08.027-.08.027-.027 0-.053 0-.08-.027-1.84-1.146-3.705-2.907-4.078-4.975-.133-.782.16-.922.613-1.09C17.28 1.37 19.2.727 20 .727c.8 0 2.719.615 3.545.95.48.168.746.336.613 1.09zm-2.266-.195l.054.028c.026.028.053.028.053.084v.95h.24V2.515h-.293l-.054.056zm-1.092.084l-.027-.14h-.746L20 2.571l.053.028c.027.028.027.028.027.084v.95h.72v-.14h-.48V3.13h.426v-.14h-.426v-.335h.48zm-1.44 10.45l-1.866-2.04h-.08v2.88h.374v-2.04L19.654 14h.08v-2.962h-.374v2.068zm-4.211.811h1.44v-.335h-1.067v-.922h.986v-.364h-.986v-.894h1.066v-.335h-1.44v2.85zm-1.706-1.201h.56v.559c-.16.195-.48.335-.827.335-.64 0-1.04-.475-1.04-1.118 0-.643.4-1.118 1.014-1.118.426 0 .72.224.906.531l.266-.223c-.24-.42-.64-.699-1.2-.699-.799 0-1.385.643-1.385 1.481 0 .838.586 1.481 1.412 1.481.507 0 .907-.223 1.2-.53v-1.09h-.906v.39zm11.862 1.201h.373v-2.878h-.373v2.878zm-4.639 0h1.44v-.335H21.04v-.922h.986v-.364h-.986v-.894h1.066v-.335h-1.44v2.85zm6.85-1.649l-.266-.083c-.213-.056-.346-.196-.346-.392 0-.251.186-.419.48-.419.266 0 .453.14.586.392l.267-.196a.906.906 0 00-.853-.559c-.534 0-.853.363-.853.81 0 .392.266.643.666.755l.267.084c.32.083.453.251.453.475 0 .28-.214.503-.533.503-.374 0-.587-.224-.694-.531l-.293.168c.134.363.427.726.987.726s.933-.363.933-.866c-.054-.475-.32-.727-.8-.867zm-3.678 0l-.266-.083c-.213-.056-.347-.196-.347-.392 0-.251.187-.419.48-.419.267 0 .453.14.587.392l.266-.196a.906.906 0 00-.853-.559c-.533 0-.853.363-.853.81 0 .392.267.643.666.755l.267.084c.32.083.453.251.453.475 0 .28-.213.503-.533.503-.373 0-.586-.224-.693-.531l-.346.14c.133.363.426.726.986.726s.933-.363.933-.866c0-.447-.294-.699-.747-.838z" fill="#000"/></svg>