<svg width="30" height="4" fill="none" xmlns="http://www.w3.org/2000/svg"><path d="M2.906 0v1.526H1.03V0H0v4h1.03V2.39h1.876V4h1.037V0H2.906zm4.825 0l-1.08 1.584L5.566 0h-1.22L6.13 2.61V4h1.037V2.61L8.95 0H7.73zm4.543 0v2.929c0 .11-.092.2-.219.2h-1.658V0H9.36v4h3.055c.275 0 .494-.071.649-.22a.802.802 0 00.24-.598V0h-1.03zm5.05 0H14.27v4h1.03V.864h1.657c.134 0 .22.097.22.2v2.93h1.029V.812c0-.254-.078-.448-.24-.598C17.811.071 17.592 0 17.324 0zm4.754 1.071v1.851c0 .11-.084.208-.218.208h-1.658V.864h1.644c.14 0 .232.09.232.207zM22.22 0h-3.055v4h3.055c.268 0 .486-.071.649-.22.162-.15.24-.351.24-.598V.818c0-.253-.078-.448-.24-.597-.163-.15-.374-.221-.65-.221zm4.712.864v1.032h-1.877v-.825a.21.21 0 01.219-.2h1.658V.863zM24.907 0c-.268 0-.494.071-.649.22-.162.15-.24.345-.24.598V4h1.03V2.766h1.877V4h1.03V0h-3.048zM30 0h-1.03v4H30V0z" fill="#193562"/></svg>