<svg width="34" height="28" fill="none" xmlns="http://www.w3.org/2000/svg"><path d="M19.813 15.119c-.027.006-.135.006-.182.006H16.15v.797h3.542c.027 0 .236 0 .276-.006.722-.067 1.053-.658 1.053-1.176 0-.53-.344-1.102-.999-1.162-.128-.013-.236-.013-.283-.013h-2.314c-.101 0-.216-.006-.256-.02-.183-.046-.25-.206-.25-.338 0-.12.067-.28.256-.332a.976.976 0 01.243-.02h3.34v-.784h-3.394c-.141 0-.25.007-.337.02a1.11 1.11 0 00-.985 1.122c0 .478.304 1.036.971 1.129.122.013.29.013.365.013h2.253c.04 0 .142 0 .162.007.256.033.344.219.344.385 0 .16-.101.332-.324.372zm-6.597 0c-.027.006-.135.006-.176.006H9.552v.797h3.542c.027 0 .236 0 .277-.006.721-.067 1.052-.658 1.052-1.176 0-.53-.344-1.102-.998-1.162-.129-.013-.237-.013-.284-.013h-2.314c-.1 0-.216-.006-.256-.02-.182-.046-.25-.206-.25-.338 0-.12.068-.28.257-.332a.975.975 0 01.243-.02h3.339v-.784h-3.393c-.142 0-.25.007-.338.02a1.11 1.11 0 00-.985 1.122c0 .478.304 1.036.972 1.129.121.013.29.013.364.013h2.253c.04 0 .142 0 .162.007.257.033.344.219.344.385 0 .16-.094.332-.323.372zm-5.478-3.074H6.86v3.897h.877v-3.897zm-2.813 3.897v-3.897h-.877v2.908l-2.921-2.908H0v3.897h.877v-2.921l2.941 2.921h1.107zm28.205-3.897v2.908l-2.921-2.908h-1.127v3.897h.877v-2.921l2.935 2.921H34v-3.897h-.87zm-8.615 0l-2.469 3.897h1.066l.438-.697h2.881l.438.697h1.06l-2.47-3.897h-.944zm1.464 2.463h-1.977l.992-1.567.985 1.567zM4.877 9.834c1.768-5.08 6.638-8.493 12.13-8.493 5.491 0 10.368 3.413 12.13 8.493l.013.04h3.865v-.459L31.41 9.23c-.992-.113-1.201-.544-1.471-1.089l-.068-.132C27.551 3.148 22.498 0 17.007 0 11.509 0 6.463 3.147 4.142 8.02l-.067.134c-.27.544-.48.976-1.471 1.089l-1.606.185v.459h3.86l.02-.053zM29.15 18.12l-.014.04c-1.767 5.08-6.638 8.485-12.13 8.485-5.49 0-10.368-3.412-12.129-8.492l-.013-.04H1.005v.459l1.606.185c.991.113 1.2.545 1.47 1.09l.068.132C6.469 24.853 11.522 28 17.013 28c5.492 0 10.544-3.147 12.865-8.014l.068-.133c.27-.545.479-.976 1.47-1.089l1.606-.186v-.458H29.15z" fill="#000"/></svg>