<svg width="28" height="32" fill="none" xmlns="http://www.w3.org/2000/svg"><path d="M.107 2.026c4.113-.7 8.245-1.1 12.409-1.179a82.389 82.389 0 0115.371 1.176c.01.056.021.1.021.144.062 1.741.113 3.48.083 5.22-.03 1.795-.142 3.583-.401 5.363-.336 2.307-.898 4.553-1.832 6.702-1.839 4.236-4.765 7.57-8.665 10.085a23.132 23.132 0 01-2.932 1.589.332.332 0 01-.319 0C7.638 28.2 3.423 23.562 1.365 17.063c-.455-1.437-.753-2.909-.967-4.4-.32-2.238-.416-4.49-.395-6.747.012-1.228.056-2.454.083-3.682l.02-.208zm.568.569c0 .114.003.193 0 .275-.015.604-.033 1.205-.05 1.81-.06 2.04-.04 4.078.133 6.113.12 1.372.31 2.735.601 4.084.45 2.084 1.13 4.09 2.147 5.974 2.347 4.34 5.821 7.508 10.307 9.625.14.065.25.053.383-.009 1.104-.51 2.16-1.1 3.162-1.78 3.316-2.254 5.883-5.141 7.59-8.75 1.068-2.258 1.699-4.638 2.056-7.098.247-1.703.374-3.418.383-5.14.01-1.398-.023-2.796-.041-4.198-.003-.296-.024-.592-.036-.905a78.677 78.677 0 00-26.635 0z" fill="#000"/><path d="M.675 2.595a78.869 78.869 0 0113.631-1.138c4.364.018 8.694.396 13.004 1.135.012.313.033.61.036.906.018 1.398.047 2.796.041 4.198a37.142 37.142 0 01-.383 5.14c-.357 2.456-.988 4.84-2.056 7.097-1.704 3.612-4.274 6.496-7.59 8.75a21.942 21.942 0 01-3.162 1.78.413.413 0 01-.383.01c-4.486-2.117-7.963-5.284-10.307-9.626-1.017-1.885-1.698-3.89-2.147-5.974a32.579 32.579 0 01-.6-4.084C.582 8.754.564 6.717.623 4.676c.018-.604.033-1.205.05-1.809.004-.079 0-.161 0-.272zm26.138.434a78.336 78.336 0 00-25.618-.003c-.006.09-.012.164-.014.237-.018.736-.042 1.472-.051 2.21-.024 1.853-.006 3.706.172 5.553a31.85 31.85 0 00.649 4.099c.416 1.797 1.008 3.535 1.862 5.18 2.234 4.304 5.6 7.467 9.99 9.593a.41.41 0 00.4-.003 22.088 22.088 0 006.016-4.198c2.686-2.636 4.503-5.773 5.52-9.367.753-2.653 1.053-5.371 1.122-8.115.027-1.056.012-2.114.006-3.17-.009-.662-.036-1.325-.054-2.016z" fill="#fff"/><path d="M26.813 3.028c.018.692.045 1.355.051 2.015.009 1.055.02 2.113-.006 3.169-.068 2.744-.372 5.462-1.121 8.115-1.017 3.594-2.835 6.73-5.52 9.366a21.998 21.998 0 01-6.018 4.199.41.41 0 01-.398.003c-4.39-2.126-7.757-5.286-9.991-9.593-.854-1.645-1.446-3.383-1.862-5.18a31.806 31.806 0 01-.648-4.096c-.179-1.847-.2-3.7-.173-5.553.009-.735.033-1.471.05-2.21l.015-.237a78.354 78.354 0 0125.621.002zm-11.41 22.885c.164-.284.307-.527.441-.776.13-.24.298-.446.512-.62 1.216-.987 2.43-1.981 3.652-2.966a.898.898 0 00.34-.504c.22-.892.362-1.794.422-2.71.047-.744.032-1.486-.048-2.227a.935.935 0 00-.173-.452c-.639-.915-1.368-1.759-2.141-2.565a.576.576 0 00-.348-.179c.009.07.012.13.024.185.143.654.288 1.307.425 1.964a.74.74 0 00.226.402c.384.372.738.765 1.047 1.202.143.202.226.422.238.665a20.935 20.935 0 01-.074 3.454.78.78 0 01-.304.542 371.358 371.358 0 00-3.29 2.803c-.279.24-.547.492-.707.832-.006.012-.024.015-.042.024-.196-.51-.306-1.02-.14-1.566.185-.612.348-1.23.518-1.847.024-.085.042-.17.062-.252L16 21.305c-.033.061-.069.123-.096.187-.217.493-.437.98-.645 1.475-.149.358-.28.721-.422 1.082a.693.693 0 00.009.56c.157.36.3.73.452 1.093.026.056.056.112.107.211zm-3.375-12.345l-.08.006c.009.176.014.349.032.525.024.237.054.472.08.709a.714.714 0 01-.112.49c-.113.175-.215.357-.33.533a37.946 37.946 0 01-2.782 3.633 1.084 1.084 0 00-.282.595c-.042.413-.09.826-.137 1.24a.739.739 0 00.122.51c.146.217.283.44.44.648a34.146 34.146 0 002.707 3.178c.303.316.627.6 1.04.77.132.054.257.127.385.188.041.021.086.03.13.042.01-.015.018-.03.027-.042-.08-.073-.149-.16-.24-.216a3.443 3.443 0 01-.836-.71 35.936 35.936 0 01-2.585-3.216c-.17-.238-.318-.487-.473-.733a.727.727 0 01-.116-.469c.033-.296.062-.592.101-.885a.647.647 0 01.23-.4c.27-.248.537-.497.796-.758.75-.75.583-.478 1.068-1.498.375-.786.717-1.59 1.074-2.384.06-.132.107-.267.071-.41-.104-.455-.22-.9-.33-1.346zm1.526-4.92c.003.021.003.042.006.065.119.003.235.015.354.009.687-.024 1.37-.047 2.058-.08.247-.011.479.024.705.124.342.155.684.313 1.032.457.137.056.285.097.431.114.286.033.574.03.857.065.17.02.348.059.494.14.603.335 1.201.687 1.796 1.036.13.076.256.134.464.117l-1.255-1.182c-.027-.026-.063-.044-.095-.061-.952-.53-1.907-1.056-2.903-1.504a1.806 1.806 0 00-.678-.158c-.461-.018-.92-.044-1.38-.062a35.448 35.448 0 00-3.867.085c-.223.018-.369.103-.467.29-.134.258-.333.455-.556.636-.429.352-.86.704-1.336.994-.098.059-.196.123-.24.273.216-.12.407-.226.597-.328l2.41-1.282c.208-.111.428-.176.669-.181.377-.01.752-.047 1.13-.05.952-.012 1.9-.018 2.852-.02.164 0 .316.043.45.137-1.184.106-2.36.202-3.528.367zM5.52 13.507c-.015.25-.068.466-.244.642-.16.159-.306.332-.452.502-.104.12-.113.176-.018.296.185.234.378.463.574.689.048.056.131.082.214.132.063-.273.122-.51.17-.75.033-.156.113-.244.28-.274.437-.079.871-.172 1.308-.255.262-.05.527-.093.821-.146-.068-.082-.113-.14-.163-.194-.158-.16-.325-.313-.47-.483a.799.799 0 00-.673-.3c-.16.004-.324-.026-.487-.04-.006-.015-.012-.03-.015-.044.056-.041.11-.088.17-.123.044-.027.098-.036.148-.053l2.284-.853a.961.961 0 00.524-.475.129.129 0 00-.083.026c-.268.24-.592.346-.94.407-.11.021-.22.053-.33.08a.593.593 0 01-.396-.02.464.464 0 00-.238-.018c-.164.026-.324.073-.485.108-.044.009-.09.012-.175.02.137-.137.244-.234.392-.284.158-.053.31-.12.467-.173.12-.04.19-.1.197-.234.006-.141.047-.279.062-.42a.326.326 0 01.143-.24c.187-.138.372-.278.556-.422.054-.041.116-.076.13-.182-.279.164-.526.323-.784.457a2.974 2.974 0 00-1.116.989c-.08.12-.202.22-.318.307-.544.414-1.095.818-1.639 1.232a3.218 3.218 0 00-.425.401c-.155.17-.116.367.098.507.104-.073.214-.152.324-.228.167-.117.33-.232.417-.428.03-.065.113-.106.172-.156zm11.716-2.612c.303.033.556.076.818-.014.196-.07.413-.091.613-.153.24-.073.44-.02.633.132.452.36.904.721 1.363 1.073.14.108.3.197.463.273.3.137.61.26.914.39.166.07.267.187.3.363.012.059.033.114.042.173.089.619.175 1.237.27 1.856a1.7 1.7 0 01-.187 1.079c-.23.434-.455.873-.69 1.304a.692.692 0 01-.211.255c-.286.173-.41.41-.384.736.009.117-.012.24-.018.36a.57.57 0 00.179-.163c.627-.833 1.139-1.736 1.6-2.668a.701.701 0 00.074-.255c.101-1.108.078-2.214-.128-3.313a.53.53 0 00-.232-.364 20.98 20.98 0 00-3.084-1.78.747.747 0 00-.652-.02c-.505.217-1.01.428-1.516.642-.048.018-.09.047-.167.094zm-2.829 15.92a1.277 1.277 0 00-.118-.657 7.476 7.476 0 01-.274-.637c-.265-.67-.53-1.345-.782-2.022a1.109 1.109 0 01-.072-.481c.042-.452.092-.903.179-1.349.229-1.19.482-2.377.722-3.565.054-.27-.053-.516-.11-.77a.697.697 0 00-.1.181c-.14.36-.283.721-.417 1.085-.414 1.125-.803 2.26-1.113 3.418-.086.32-.062.604.072.906a42.034 42.034 0 001.927 3.764c.027.044.06.085.086.126zM8.268 11.248l.018.053c.164 0 .327.008.488-.003.366-.027.74 0 1.098-.109a57.72 57.72 0 001.38-.425.484.484 0 00.246-.176c.247-.398.482-.806.717-1.21.01-.018.01-.042.018-.088-.327-.012-.651-.056-.958.064-.517.202-1.029.425-1.534.65a1.112 1.112 0 00-.327.262 5.17 5.17 0 00-.414.501.986.986 0 01-.511.381c-.08.024-.15.068-.22.1zm.04 3.456l-.01.047c.066.027.134.056.2.08.362.128.725.255 1.085.386.28.103.369.329.232.587-.25.46-.541.894-.877 1.299a.62.62 0 01-.247.181c-.324.118-.658.217-.988.326a.268.268 0 01-.288-.059 27.762 27.762 0 00-.324-.278c-.036-.03-.08-.056-.14-.097-.024.284-.054.533.06.788.106.235.166.493.237.742.06.208.098.42.152.628.039.146.083.181.226.15.22-.05.44-.104.651-.186.11-.044.197-.146.292-.225a.248.248 0 00-.167-.018c-.175.038-.35.085-.53.114-.157.03-.184.006-.216-.146-.045-.22-.084-.44-.12-.66-.035-.2-.023-.214.185-.284.455-.156.913-.31 1.371-.46.12-.039.223-.091.286-.203.336-.583.672-1.164 1.002-1.747.03-.053.054-.138.033-.19-.075-.188-.167-.367-.399-.42-.476-.111-.951-.234-1.427-.346-.093-.014-.188-.006-.28-.009zm7.51-.914l-.027-.159c-.093-.436-.185-.873-.28-1.307-.036-.167-.045-.32.083-.46.08-.088.137-.194.203-.296.368-.59.365-.417.199-1.179a.396.396 0 00-.024-.085c-.018-.032-.039-.07-.069-.085-.184-.097-.362-.2-.594-.15-.619.132-1.24.244-1.862.367-.265.053-.408.22-.446.51.13.023.264.041.395.073.19.05.366.02.547-.055.381-.159.774-.29 1.158-.449a.507.507 0 01.413.012c.226.094.324.416.181.61-.166.228-.339.454-.517.677a.299.299 0 00-.06.308c.146.445.283.894.42 1.34a.538.538 0 00.28.328zM8.642 5.608c-.69.047-1.356.094-2.025.138v-.48c.603-.048 1.195-.092 1.796-.138v-.3c-.604.044-1.193.086-1.793.127v-.44c.68-.05 1.347-.1 2.016-.153.006-.061.012-.105.012-.15 0-.04-.009-.084-.015-.155l-2.347.176v1.844c.795-.058 1.574-.117 2.353-.175v-.294h.003zm6.303-.155c-.556 0-1.086.003-1.612-.003-.167 0-.23-.067-.232-.235a17.93 17.93 0 010-.691c0-.273.035-.311.312-.314.497-.003.996 0 1.493.003h.247v-.29c-.05-.006-.086-.012-.122-.012-.544-.003-1.086-.006-1.63-.003a1.16 1.16 0 00-.247.03c-.229.046-.357.163-.369.39-.014.348-.014.7 0 1.049.01.208.134.32.343.354.095.018.196.024.291.027.55.006 1.1.006 1.654.009.065 0 .13-.01.21-.015a14.36 14.36 0 00-.002-1.073H14v.296h.943v.478h.003zm1.475-1.208c.69.024 1.36.05 2.038.073v-.293c-.792-.038-1.571-.082-2.371-.085 0 .628-.003 1.226 0 1.833.812.029 1.591.058 2.385.09l-.014-.302c-.694-.029-1.363-.055-2.038-.082v-.457h.913c.298.003.595.053.89.026v-.29c-.61-.023-1.202-.047-1.806-.073v-.44h.003zm5.42.935v-.466c-.013-.243-.12-.384-.358-.457a.946.946 0 00-.22-.044c-.458-.035-.916-.07-1.374-.103a1.382 1.382 0 00-.247.006c-.24.024-.363.132-.372.367-.014.34-.014.683.003 1.026.01.231.128.349.357.401.102.024.209.035.313.044.33.027.66.053.99.074.182.011.363.023.541.014.235-.011.357-.138.366-.37.006-.163 0-.328 0-.492zm-18.442.64c.429-.047.824-.091 1.223-.138.187-.024.375-.044.556-.082.181-.039.321-.156.345-.343.024-.191.024-.385.003-.575-.018-.173-.14-.276-.315-.302a.996.996 0 00-.247-.009 69.88 69.88 0 00-1.1.114c-.26.03-.518.065-.78.1V6.42c.107-.011.202-.023.315-.038V5.82zm6.38-1.804l-.336.018v.258c0 .343-.003.686 0 1.026.006.378.134.504.524.516h.044c.482-.018.967-.03 1.449-.059.39-.023.514-.16.517-.554.003-.363 0-.73 0-1.093 0-.059-.005-.115-.011-.182h-.313c-.003.082-.012.155-.012.229 0 .357.003.715-.003 1.073-.003.182-.038.225-.226.234a75.61 75.61 0 01-1.424.056c-.167.006-.209-.041-.212-.217-.003-.185 0-.372 0-.557.003-.235.003-.472.003-.748zm15.14.563c-.833-.09-1.645-.181-2.475-.272v.305l1.077.12v1.527c.119.015.214.03.339.044V4.77c.369.038.71.073 1.059.111V4.58zM9.35 16.136l-.05-.05L7.806 17.3c.006.015.015.026.021.041.268-.09.536-.182.803-.279a.253.253 0 00.104-.082c.206-.278.41-.56.616-.844zm-2.92-.621c-.274.067-.477.167-.596.395l.447.505c.02-.074.035-.115.041-.156.036-.234.069-.466.107-.744zm1.974-3.964l-.018.416c.45-.047.52-.126.402-.437l-.384.02z" fill="#000"/><path d="M15.404 25.914c-.05-.1-.08-.159-.107-.217-.152-.364-.295-.733-.452-1.094a.693.693 0 01-.01-.56c.144-.36.271-.724.423-1.082.208-.495.428-.985.646-1.474a3.67 3.67 0 01.095-.188l.044.018c-.02.085-.038.17-.062.252-.173.615-.333 1.237-.518 1.847-.166.545-.053 1.058.14 1.568.015-.009.036-.012.042-.023.16-.34.428-.592.708-.833a585.837 585.837 0 013.29-2.803.779.779 0 00.303-.542c.128-1.15.136-2.301.074-3.454a1.266 1.266 0 00-.238-.665 8.44 8.44 0 00-1.047-1.202.779.779 0 01-.226-.402c-.137-.656-.282-1.307-.425-1.964-.012-.056-.015-.114-.024-.185a.594.594 0 01.348.18c.773.806 1.502 1.65 2.141 2.565a.946.946 0 01.173.451c.08.742.095 1.483.048 2.228a15.191 15.191 0 01-.423 2.709.888.888 0 01-.339.504c-1.222.982-2.436 1.976-3.652 2.967a2.054 2.054 0 00-.512.619c-.134.252-.276.495-.44.78zm-3.376-12.346c.113.446.226.891.333 1.34.036.143-.012.278-.071.41-.357.795-.7 1.598-1.074 2.384-.485 1.02-.318.747-1.068 1.498-.259.26-.526.51-.797.76a.647.647 0 00-.229.398c-.039.296-.068.59-.101.885a.726.726 0 00.116.47c.155.245.303.495.473.732a35.55 35.55 0 002.585 3.216c.246.276.514.522.835.71.093.053.16.143.241.217-.009.014-.018.029-.027.04-.044-.014-.089-.023-.13-.04-.128-.062-.253-.135-.384-.188-.414-.17-.738-.454-1.041-.771a33.822 33.822 0 01-2.707-3.178c-.157-.208-.294-.43-.44-.648a.754.754 0 01-.122-.51c.048-.413.095-.827.137-1.24.024-.232.128-.42.282-.595a38.498 38.498 0 002.778-3.63c.116-.173.218-.357.33-.533a.717.717 0 00.114-.49c-.027-.237-.06-.472-.08-.71-.018-.172-.021-.348-.033-.524l.08-.003zm1.526-4.919c1.169-.165 2.344-.261 3.524-.361a.727.727 0 00-.449-.138c-.952.003-1.9.006-2.852.02-.378.007-.753.045-1.13.05-.241.006-.458.07-.67.182L9.568 9.683c-.19.103-.38.209-.598.329.045-.153.143-.214.241-.273.476-.29.907-.639 1.336-.994.223-.181.425-.38.556-.636.098-.187.24-.273.467-.29a34.728 34.728 0 013.867-.085c.46.017.919.04 1.38.061.238.01.46.062.678.159.996.448 1.951.973 2.903 1.504.032.017.068.035.095.061l1.255 1.182a.716.716 0 01-.464-.117 67.923 67.923 0 00-1.796-1.035 1.404 1.404 0 00-.494-.138c-.283-.035-.574-.032-.857-.065a1.589 1.589 0 01-.431-.114c-.348-.144-.69-.299-1.032-.457a1.49 1.49 0 00-.705-.123c-.687.032-1.371.055-2.058.079-.116.003-.235-.006-.354-.01 0-.031 0-.052-.003-.072zM5.52 13.506c-.056.05-.14.091-.17.156-.086.196-.252.31-.416.428-.11.079-.22.155-.324.228-.214-.143-.253-.337-.098-.507.13-.143.27-.281.425-.401.542-.417 1.095-.818 1.639-1.232.119-.09.238-.19.318-.308.289-.425.66-.747 1.116-.987.258-.135.505-.294.785-.458-.012.106-.077.144-.131.182-.184.14-.369.284-.556.422a.318.318 0 00-.143.24c-.015.141-.053.279-.062.42-.006.137-.078.196-.197.234-.157.053-.31.12-.467.173-.148.05-.258.147-.392.285.083-.01.13-.01.175-.02.16-.036.321-.083.485-.11a.434.434 0 01.238.018.593.593 0 00.396.02c.11-.026.22-.058.33-.078.345-.065.672-.168.94-.408a.123.123 0 01.083-.026.983.983 0 01-.524.475l-2.284.853c-.05.017-.104.029-.149.053-.06.035-.113.082-.17.123a.179.179 0 01.016.044c.163.014.324.044.487.04a.81.81 0 01.673.3c.145.17.315.322.47.483.05.053.095.112.163.194-.294.053-.559.097-.82.146-.438.085-.872.18-1.31.255-.166.03-.246.118-.279.273-.05.24-.107.478-.17.75-.083-.05-.163-.075-.214-.131-.199-.226-.39-.455-.574-.69-.095-.12-.086-.175.018-.295.146-.17.292-.343.452-.502.17-.175.223-.392.241-.642z" fill="#fff"/><path d="M17.236 10.894c.08-.047.119-.076.164-.094.505-.214 1.014-.425 1.517-.642a.748.748 0 01.65.02 20.71 20.71 0 013.085 1.78.535.535 0 01.232.364c.206 1.1.23 2.205.128 3.313a.763.763 0 01-.074.255c-.458.932-.97 1.832-1.6 2.668a.57.57 0 01-.179.164c.006-.12.027-.24.018-.36-.027-.329.098-.566.384-.736a.663.663 0 00.21-.256c.236-.434.462-.87.69-1.304a1.7 1.7 0 00.188-1.08c-.095-.618-.178-1.236-.27-1.855-.01-.059-.03-.114-.042-.173a.473.473 0 00-.3-.363c-.307-.126-.613-.25-.913-.39a2.625 2.625 0 01-.464-.273c-.462-.352-.914-.71-1.363-1.073a.654.654 0 00-.633-.132c-.203.062-.417.082-.613.153-.259.09-.512.046-.815.014zm-2.828 15.919c-.03-.04-.063-.082-.087-.126-.699-1.225-1.36-2.471-1.927-3.764a1.29 1.29 0 01-.072-.906c.31-1.16.7-2.293 1.113-3.418.134-.364.276-.724.416-1.085a.696.696 0 01.101-.182c.06.255.167.502.11.771-.24 1.188-.49 2.375-.722 3.565-.087.446-.134.897-.179 1.349a1.11 1.11 0 00.072.48c.25.678.517 1.35.782 2.023.083.214.172.431.274.637.104.205.133.425.119.656zm-6.14-15.564c.072-.035.143-.08.218-.103a.986.986 0 00.511-.38c.128-.177.265-.344.414-.502.095-.103.205-.205.327-.261a32.08 32.08 0 011.535-.65c.306-.121.63-.077.957-.065-.009.047-.006.07-.018.088-.238.404-.47.815-.716 1.21a.473.473 0 01-.247.176c-.458.15-.92.288-1.38.425-.36.109-.732.08-1.098.109-.16.012-.324.003-.488.003-.006-.015-.009-.032-.015-.05zm.039 3.456c.092.003.187-.006.277.015.476.111.951.234 1.427.346.232.053.325.231.399.42.02.052-.003.134-.033.19-.33.583-.666 1.167-1.002 1.747-.063.111-.17.164-.286.202-.458.153-.913.308-1.37.46-.21.07-.218.086-.185.285.038.22.077.44.119.66.03.152.06.172.217.146.178-.032.354-.079.53-.114a.266.266 0 01.166.017c-.098.077-.182.182-.292.226a4.458 4.458 0 01-.651.185c-.143.032-.187-.003-.226-.15-.054-.208-.095-.422-.152-.63-.071-.25-.13-.507-.238-.742-.116-.255-.083-.504-.06-.788.06.04.105.064.14.096.11.091.22.182.325.279a.268.268 0 00.288.058c.327-.11.66-.208.988-.325a.628.628 0 00.247-.182 7.99 7.99 0 00.877-1.298c.137-.255.048-.484-.232-.587-.36-.132-.723-.258-1.086-.387-.068-.023-.133-.053-.199-.079a.56.56 0 00.012-.05zm7.51-.915a.542.542 0 01-.28-.33 99.646 99.646 0 00-.419-1.34.299.299 0 01.06-.308c.178-.223.35-.449.517-.677.143-.194.042-.516-.181-.61a.518.518 0 00-.414-.012c-.383.155-.776.29-1.157.449a.84.84 0 01-.547.055c-.13-.032-.265-.05-.395-.073.038-.29.181-.457.446-.51.618-.123 1.243-.237 1.862-.366.232-.05.41.052.595.149.03.015.05.053.068.085.015.026.018.056.024.085.166.762.17.59-.2 1.179-.062.102-.121.208-.202.296-.128.14-.119.296-.083.46.095.437.187.87.28 1.308l.026.16zM8.643 5.608v.3c-.782.058-1.558.117-2.353.175V4.24l2.347-.176c.006.07.015.112.015.156s-.006.088-.012.15c-.67.05-1.335.099-2.016.152v.44c.6-.045 1.19-.086 1.793-.127v.3l-1.796.137v.481c.666-.05 1.33-.097 2.022-.144zm6.303-.155v-.484h-.943v-.296h1.282c.018.355.012.707.003 1.073-.08.006-.146.015-.211.015-.55 0-1.1-.003-1.654-.009a1.92 1.92 0 01-.291-.023c-.209-.036-.334-.15-.343-.355a13.13 13.13 0 010-1.05c.012-.225.14-.343.37-.39a1.19 1.19 0 01.246-.029c.544 0 1.086.003 1.63.003.036 0 .071.006.122.012v.29h-.247l-1.493-.003c-.277 0-.312.041-.312.314 0 .231-.003.46 0 .692.003.167.065.234.232.234.526.009 1.053.006 1.609.006zm1.475-1.208v.44c.604.023 1.196.047 1.806.073v.29c-.295.027-.592-.026-.89-.026-.3-.003-.6 0-.913 0v.457c.675.027 1.344.056 2.038.082l.014.302c-.794-.029-1.573-.058-2.385-.09-.003-.607 0-1.205 0-1.833.8.003 1.58.047 2.37.085v.293a414.57 414.57 0 00-2.04-.073zm5.419.935c0 .165.006.329-.003.49-.011.232-.134.358-.366.37a4.748 4.748 0 01-.54-.015c-.331-.02-.661-.047-.991-.074a2.223 2.223 0 01-.313-.044c-.229-.052-.345-.17-.357-.401-.014-.34-.014-.683-.003-1.026.01-.235.134-.343.372-.367.084-.009.167-.011.247-.006.458.033.916.065 1.374.103.075.006.149.023.22.044.238.073.346.214.357.457v.044c.006.144.006.285.003.425zm-.32-.026c0-.135.002-.267 0-.402-.007-.16-.054-.22-.212-.231a86.846 86.846 0 00-1.508-.118c-.14-.008-.205.042-.208.176-.01.29-.01.578 0 .868.003.126.071.182.205.194.503.04 1.005.076 1.508.111.152.009.202-.044.211-.193.009-.138.003-.273.003-.405zM3.4 5.82v.565c-.114.015-.209.024-.316.038V4.588c.262-.032.52-.07.78-.1.365-.04.734-.079 1.1-.114a.996.996 0 01.247.009c.175.026.297.129.315.302.018.19.02.384-.003.575-.024.187-.164.302-.345.343-.181.04-.372.058-.556.082l-1.223.135zm.014-.308c.17-.018.31-.036.452-.05.381-.041.762-.082 1.142-.13.167-.02.203-.067.209-.23.003-.074.003-.15 0-.224-.006-.184-.054-.225-.232-.208-.277.027-.554.056-.83.088l-.74.094v.66zM9.78 4.017v.75c0 .185-.004.372 0 .557.002.173.044.22.21.217a74.41 74.41 0 001.425-.056c.188-.008.223-.052.226-.234.003-.358 0-.716.003-1.073 0-.074.006-.144.012-.229h.312c.003.065.012.123.012.182 0 .363.003.73 0 1.093-.003.39-.128.531-.517.554-.482.027-.964.039-1.449.06H9.97c-.387-.016-.518-.139-.524-.517-.006-.343 0-.686 0-1.026v-.258c.116-.009.211-.015.333-.02zm15.139.563v.301c-.348-.035-.69-.073-1.06-.111v1.533c-.124-.017-.22-.03-.338-.044V4.73l-1.077-.12v-.302l2.475.272z" fill="#fff"/><path d="M9.351 16.136c-.205.282-.41.566-.619.848a.255.255 0 01-.104.082c-.264.096-.535.187-.8.278-.006-.015-.015-.026-.02-.041.496-.405.996-.81 1.492-1.214a.785.785 0 00.051.047zm-2.921-.621c-.038.275-.071.51-.107.744-.006.041-.02.082-.041.156l-.447-.505c.12-.228.319-.328.595-.395zm1.975-3.965l.384-.02c.119.311.048.387-.402.437.006-.132.01-.26.018-.416z" fill="#fff"/><path d="M21.52 5.154c0 .135.002.267 0 .401-.007.15-.06.203-.21.194a86.945 86.945 0 01-1.507-.111c-.134-.012-.202-.068-.205-.194-.01-.29-.01-.578 0-.868.003-.132.068-.184.208-.176a87 87 0 011.508.118c.157.014.205.07.211.231-.003.135-.006.27-.006.405zm-18.106.358v-.66c.253-.032.497-.065.74-.094.278-.032.554-.061.83-.088.18-.017.227.027.233.208.003.074.003.15 0 .223-.006.164-.042.211-.208.232-.381.047-.762.085-1.143.129-.142.014-.282.032-.452.05z" fill="#000"/></svg>