<svg width="20" height="26" fill="none" xmlns="http://www.w3.org/2000/svg"><path d="M8.999.004c-.342.632-4.947 9.162-6.93 12.827-.07.127-.064.218.003.342 1.944 3.591 5.882 10.876 5.923 10.944.04-.068 3.98-7.353 5.923-10.943.067-.124.073-.216.004-.343-1.112-2.048-2.217-4.1-3.33-6.148-.07-.13-.075-.228-.001-.36.306-.546.598-1.098.908-1.671.044.074 2.992 5.52 4.437 8.19.06.112.066.196.004.311a8596.37 8596.37 0 00-6.852 12.685c-.061.113-.123.164-.261.162-.565-.01-1.13-.007-1.695-.002-.105.002-.16-.032-.21-.124-2.292-4.25-4.587-8.5-6.884-12.748-.048-.089-.052-.155-.003-.246C2.333 8.63 4.627 4.38 6.925.132 6.954.08 7.022.01 7.073.01 7.703 0 8.333.004 8.999.004z" fill="#000"/><path d="M11.611 2.607L6.082 12.826c-.067.124-.072.216-.003.342 1.112 2.049 2.217 4.1 3.33 6.148.07.132.074.229 0 .36-.305.547-.598 1.099-.909 1.672-.041-.069-2.988-5.517-4.436-8.19-.061-.113-.066-.197-.003-.312A9646.81 9646.81 0 0010.91.162c.062-.114.125-.164.262-.162.565.01 1.13.007 1.695.002.105-.001.16.033.21.124 2.293 4.251 4.587 8.5 6.884 12.749.049.088.052.155.003.246-2.298 4.248-4.592 8.498-6.89 12.746-.029.054-.097.122-.148.122-.63.009-1.26.005-1.921.005.043-.083 4.65-8.621 6.926-12.826.069-.127.064-.219-.004-.343-1.944-3.59-5.882-10.875-5.923-10.943l-.394.725z" fill="#000"/></svg>