<svg width="40" height="14" viewBox="0 0 40 14" fill="none" xmlns="http://www.w3.org/2000/svg">
<path d="M17.2811 3.1018L17.3878 3.15768C17.4144 3.15768 17.4411 3.18563 17.4411 3.21357V3.46507C17.3878 3.49301 17.3345 3.52096 17.2811 3.52096C17.0679 3.52096 16.9346 3.35329 16.9346 3.1018C16.9346 2.8503 17.0679 2.65469 17.3078 2.65469C17.3611 2.65469 17.4944 2.65469 17.6277 2.76647L17.681 2.5988C17.521 2.54291 17.4411 2.51497 17.3078 2.51497C16.9879 2.51497 16.7214 2.71058 16.7214 3.1018C16.7214 3.46507 16.9613 3.66068 17.2811 3.66068C17.521 3.66068 17.6543 3.57685 17.681 3.5489V3.04591H17.3344L17.2811 3.1018ZM18.6406 2.65469L18.6139 2.51497H17.8676L17.8409 2.57086L17.8676 2.5988C17.8942 2.62675 17.8942 2.62675 17.8942 2.68263V3.63273H18.6139V3.49301H18.1341V3.12974H18.5606V2.99002H18.1341V2.65469H18.6406ZM38.8188 1.76048C36.9529 1.92814 27.3836 2.87824 26.9304 2.93413C26.1041 3.04591 25.7309 3.26946 25.4377 3.77246C24.4248 5.42116 23.9717 6.23154 22.6656 7.32136C22.6122 7.37725 22.6122 7.40519 22.7189 7.40519C24.1849 7.15369 25.2778 6.9022 27.3836 6.3992C27.4635 6.37126 27.4635 6.37126 27.3836 6.34331C26.4773 6.28743 25.6776 6.23154 25.1445 6.17565C25.0112 6.17565 25.0112 6.11976 25.0646 6.03593C25.2245 5.84032 25.3578 5.81238 25.7576 5.81238C26.1308 5.81238 27.0371 5.81238 27.9433 5.84032C29.7559 5.84032 31.5685 5.36527 33.7809 4.58283C33.8076 4.58283 33.8076 4.55489 33.7809 4.55489C30.6622 4.63872 26.8505 4.66667 26.2374 4.66667C26.1574 4.66667 26.1574 4.61078 26.2107 4.52695C26.344 4.35928 26.504 4.27545 27.0371 4.21956C27.7568 4.16367 33.9408 3.85629 34.9538 3.8004C36.1532 3.74451 36.8729 3.5489 37.8592 2.76647C38.1524 2.54291 38.5256 2.20758 38.8721 1.84431C38.9254 1.78842 38.9254 1.76048 38.8188 1.76048ZM19.6268 3.26946L19.0404 2.51497H18.8272L18.8005 2.57086L18.8538 2.5988C18.8805 2.62675 18.9071 2.62675 18.9071 2.68263V3.63273H19.0671V2.90619L19.6002 3.63273H19.7868V2.51497H19.6268V3.26946ZM17.3344 7.32136C16.0283 6.23154 15.5752 5.42116 14.5623 3.77246C14.2691 3.26946 13.8959 3.04591 13.0696 2.93413C12.6164 2.87824 3.07375 1.95609 1.1812 1.76048C1.07458 1.76048 1.07458 1.78842 1.15455 1.84431C1.47442 2.20758 1.87425 2.54291 2.1408 2.76647C3.12706 3.5489 3.84676 3.74451 5.04626 3.8004C6.05917 3.82834 12.2432 4.16367 12.9629 4.21956C13.4961 4.24751 13.6293 4.35928 13.7893 4.52695C13.8426 4.61078 13.8692 4.66667 13.7626 4.66667C13.1495 4.66667 9.36445 4.63872 6.2191 4.55489C6.19244 4.55489 6.19244 4.58283 6.2191 4.58283C8.45816 5.36527 10.2441 5.84032 12.0567 5.84032C12.9629 5.84032 13.8959 5.81238 14.2424 5.81238C14.6422 5.81238 14.8022 5.84032 14.9355 6.03593C14.9888 6.11976 14.9888 6.17565 14.8555 6.17565C14.2957 6.23154 13.5227 6.28743 12.6164 6.34331C12.5365 6.34331 12.5365 6.37126 12.6164 6.3992C14.6956 6.93014 15.8151 7.15369 17.2811 7.40519C17.3878 7.40519 17.3878 7.37725 17.3344 7.32136ZM21.4661 2.96208C21.3328 2.87824 21.1995 2.8503 21.1995 2.73852C21.1995 2.68263 21.2528 2.62675 21.3594 2.62675C21.4661 2.62675 21.5727 2.68263 21.6793 2.71058L21.706 2.54291C21.626 2.51497 21.4927 2.48703 21.3861 2.48703C21.1195 2.48703 20.9863 2.62675 20.9863 2.79441C20.9863 2.96208 21.0929 3.04591 21.2528 3.12974C21.3861 3.18563 21.5194 3.24152 21.5194 3.35329C21.5194 3.43713 21.4661 3.49301 21.3328 3.49301C21.2262 3.49301 21.0929 3.43713 21.0129 3.40918L20.9863 3.60479C21.0396 3.60479 21.1995 3.66068 21.3328 3.66068C21.546 3.66068 21.7593 3.5489 21.7593 3.35329C21.7326 3.12974 21.5993 3.04591 21.4661 2.96208ZM22.9854 2.96208C22.8521 2.87824 22.7189 2.8503 22.7189 2.73852C22.7189 2.68263 22.7722 2.62675 22.8788 2.62675C22.9854 2.62675 23.092 2.68263 23.1987 2.71058L23.2253 2.54291C23.1454 2.51497 23.0121 2.48703 22.9055 2.48703C22.6389 2.48703 22.479 2.62675 22.479 2.79441C22.479 2.96208 22.5856 3.04591 22.7455 3.12974C22.8788 3.18563 23.0121 3.24152 23.0121 3.35329C23.0121 3.43713 22.9588 3.49301 22.8255 3.49301C22.7189 3.49301 22.5856 3.43713 22.5056 3.40918L22.479 3.60479C22.5323 3.60479 22.6922 3.66068 22.8255 3.66068C23.0387 3.66068 23.252 3.5489 23.252 3.35329C23.252 3.12974 23.1187 3.04591 22.9854 2.96208ZM39.9117 0.558882C39.6984 0.586826 31.2486 0.9501 26.1841 1.14571C24.9313 1.2016 24.5581 1.17365 23.5185 0.838323C21.9725 0.335329 20.5864 0 20 0C19.4136 0 18.0275 0.335329 16.4815 0.838323C15.4419 1.2016 15.0687 1.22954 13.8159 1.14571C8.75137 0.9501 0.301573 0.586826 0.0883286 0.558882C-0.0182935 0.558882 -0.0182935 0.586826 0.0350176 0.642715C0.381539 1.00599 0.568128 1.11776 1.28783 1.22954C2.96712 1.48104 11.4169 2.09581 13.3095 2.37525C14.509 2.57086 14.7755 2.99002 15.282 3.85629C16.5881 6.09182 17.6543 7.15369 19.8934 8.32734C19.92 8.38323 19.9733 8.38323 20 8.38323C20.0267 8.38323 20.08 8.38323 20.1066 8.35529C22.3457 7.18164 23.4119 6.09182 24.718 3.88423C25.1978 3.01796 25.491 2.5988 26.6905 2.40319C28.5564 2.12375 37.0329 1.50898 38.7122 1.25749C39.4319 1.14571 39.6185 1.03393 39.965 0.670659C40.0183 0.61477 40.0183 0.558882 39.9117 0.558882ZM24.1583 2.76647C23.7851 4.83433 21.9192 6.59481 20.08 7.74052C20.0267 7.76846 20 7.76846 20 7.76846C19.9733 7.76846 19.9467 7.76846 19.92 7.74052C18.0808 6.59481 16.2149 4.83433 15.8417 2.76647C15.7085 1.98403 16.0017 1.84431 16.4548 1.67665C17.2811 1.36926 19.2003 0.726547 20 0.726547C20.7997 0.726547 22.7189 1.34132 23.5452 1.67665C24.025 1.84431 24.2915 2.01198 24.1583 2.76647ZM21.8925 2.57086L21.9459 2.5988C21.9725 2.62675 21.9992 2.62675 21.9992 2.68263V3.63273H22.2391V2.51497H21.9459L21.8925 2.57086ZM20.7997 2.65469L20.773 2.51497H20.0267L20 2.57086L20.0533 2.5988C20.08 2.62675 20.08 2.62675 20.08 2.68263V3.63273H20.7997V3.49301H20.3199V3.12974H20.7464V2.99002H20.3199V2.65469H20.7997ZM19.3603 13.1058L17.4944 11.0659H17.4144V13.9441H17.7876V11.9042L19.6535 14H19.7334V11.0379H19.3603V13.1058ZM15.1487 13.9162H16.5881V13.5808H15.5219V12.6587H16.5081V12.2954H15.5219V11.4012H16.5881V11.0659H15.1487V13.9162ZM13.4427 12.7146H14.0025V13.2735C13.8426 13.4691 13.5227 13.6088 13.1762 13.6088C12.5365 13.6088 12.1366 13.1337 12.1366 12.491C12.1366 11.8483 12.5365 11.3733 13.1495 11.3733C13.576 11.3733 13.8692 11.5968 14.0558 11.9042L14.3224 11.6806C14.0825 11.2615 13.6826 10.982 13.1229 10.982C12.3232 10.982 11.7368 11.6247 11.7368 12.4631C11.7368 13.3014 12.3232 13.9441 13.1495 13.9441C13.656 13.9441 14.0558 13.7206 14.349 13.4132V12.3234H13.4427V12.7146ZM25.3045 13.9162H25.6776V11.0379H25.3045V13.9162ZM20.6664 13.9162H22.1058V13.5808H21.0396V12.6587H22.0258V12.2954H21.0396V11.4012H22.1058V11.0659H20.6664V13.9162ZM27.5169 12.2675L27.2503 12.1836C27.0371 12.1277 26.9038 11.988 26.9038 11.7924C26.9038 11.5409 27.0904 11.3733 27.3836 11.3733C27.6501 11.3733 27.8367 11.513 27.97 11.7645L28.2366 11.5689C28.1033 11.2615 27.8101 11.01 27.3836 11.01C26.8505 11.01 26.5306 11.3733 26.5306 11.8204C26.5306 12.2116 26.7972 12.4631 27.197 12.5749L27.4635 12.6587C27.7834 12.7425 27.9167 12.9102 27.9167 13.1337C27.9167 13.4132 27.7034 13.6367 27.3836 13.6367C27.0104 13.6367 26.7972 13.4132 26.6905 13.1058L26.3973 13.2735C26.5306 13.6367 26.8238 14 27.3836 14C27.9433 14 28.3165 13.6367 28.3165 13.1337C28.2632 12.6587 27.9967 12.4072 27.5169 12.2675ZM23.8384 12.2675L23.5718 12.1836C23.3586 12.1277 23.2253 11.988 23.2253 11.7924C23.2253 11.5409 23.4119 11.3733 23.7051 11.3733C23.9717 11.3733 24.1583 11.513 24.2915 11.7645L24.5581 11.5689C24.4248 11.2615 24.1316 11.01 23.7051 11.01C23.172 11.01 22.8521 11.3733 22.8521 11.8204C22.8521 12.2116 23.1187 12.4631 23.5185 12.5749L23.7851 12.6587C24.105 12.7425 24.2382 12.9102 24.2382 13.1337C24.2382 13.4132 24.025 13.6367 23.7051 13.6367C23.3319 13.6367 23.1187 13.4132 23.0121 13.1058L22.6656 13.2455C22.7988 13.6088 23.092 13.9721 23.6518 13.9721C24.2116 13.9721 24.5848 13.6088 24.5848 13.1058C24.5848 12.6587 24.2915 12.4072 23.8384 12.2675Z" fill="black"/>
</svg>
