<svg width="30" height="4" viewBox="0 0 30 4" fill="none" xmlns="http://www.w3.org/2000/svg">
<path d="M2.90618 0V1.52597H1.02986V0H0V4H1.02986V2.38961H2.90618V4H3.9431V0H2.90618Z" fill="#193562"/>
<path d="M7.73101 0L6.65178 1.58442L5.56548 0H4.34517L6.12979 2.61039V4H7.16671V2.61039L8.95133 0H7.73101Z" fill="#193562"/>
<path d="M12.2737 0V2.92857C12.2737 3.03896 12.182 3.12987 12.055 3.12987H10.3974V0H9.36045V4H12.4148C12.6899 4 12.9085 3.92857 13.0637 3.77922C13.2189 3.62987 13.3036 3.42857 13.3036 3.18182V0H12.2737Z" fill="#193562"/>
<path d="M17.3242 0H14.2699V4H15.2998V0.863636H16.9574C17.0915 0.863636 17.1761 0.961039 17.1761 1.06493V3.99351H18.206V0.811688C18.206 0.558442 18.1284 0.363636 17.9661 0.214286C17.811 0.0714286 17.5923 0 17.3242 0Z" fill="#193562"/>
<path d="M22.0785 1.07143V2.92208C22.0785 3.03247 21.9939 3.12987 21.8599 3.12987H20.2022V0.863636H21.8458C21.9868 0.863636 22.0785 0.954545 22.0785 1.07143ZM22.2196 0H19.1653V4H22.2196C22.4877 4 22.7063 3.92857 22.8686 3.77922C23.0308 3.62987 23.1084 3.42857 23.1084 3.18182V0.818182C23.1084 0.564935 23.0308 0.37013 22.8686 0.220779C22.7063 0.0714286 22.4947 0 22.2196 0Z" fill="#193562"/>
<path d="M26.9316 0.863636V1.8961H25.0553V1.07143C25.0553 0.974026 25.1399 0.87013 25.2739 0.87013H26.9316V0.863636ZM24.9071 0C24.6391 0 24.4134 0.0714286 24.2582 0.220779C24.0959 0.37013 24.0183 0.564935 24.0183 0.818182V4H25.0482V2.76623H26.9245V4H27.9544V0H24.9071Z" fill="#193562"/>
<path d="M30 0H28.9701V4H30V0Z" fill="#193562"/>
</svg>
