<svg width="34" height="28" viewBox="0 0 34 28" fill="none" xmlns="http://www.w3.org/2000/svg">
<path d="M19.8131 15.1188C19.7861 15.1254 19.6782 15.1254 19.631 15.1254H16.15V15.9222H19.6917C19.7187 15.9222 19.9278 15.9222 19.9683 15.9156C20.6901 15.8492 21.0206 15.2582 21.0206 14.7403C21.0206 14.2092 20.6766 13.6381 20.0222 13.5784C19.894 13.5651 19.7861 13.5651 19.7389 13.5651H17.425C17.3238 13.5651 17.2091 13.5585 17.1687 13.5452C16.9865 13.4987 16.919 13.3393 16.919 13.2065C16.919 13.087 16.9865 12.9277 17.1754 12.8746C17.2294 12.8613 17.2901 12.8546 17.4183 12.8546H20.7575V12.0711H17.3643C17.2226 12.0711 17.1147 12.0778 17.027 12.0911C16.4468 12.1707 16.0421 12.6289 16.0421 13.2132C16.0421 13.6912 16.3456 14.249 17.0135 14.3419C17.1349 14.3552 17.3036 14.3552 17.3778 14.3552H19.631C19.6714 14.3552 19.7726 14.3552 19.7929 14.3619C20.0492 14.3951 20.1369 14.581 20.1369 14.747C20.1369 14.9063 20.0357 15.079 19.8131 15.1188Z" fill="black"/>
<path d="M13.2155 15.1188C13.1885 15.1254 13.0806 15.1254 13.0401 15.1254H9.55238V15.9222H13.094C13.121 15.9222 13.3302 15.9222 13.3706 15.9156C14.0925 15.8492 14.423 15.2582 14.423 14.7403C14.423 14.2092 14.079 13.6381 13.4246 13.5784C13.2964 13.5651 13.1885 13.5651 13.1413 13.5651H10.8274C10.7262 13.5651 10.6115 13.5585 10.571 13.5452C10.3889 13.4987 10.3214 13.3393 10.3214 13.2065C10.3214 13.087 10.3889 12.9277 10.5778 12.8746C10.6317 12.8613 10.6925 12.8546 10.8206 12.8546H14.1599V12.0711H10.7667C10.625 12.0711 10.5171 12.0778 10.4294 12.0911C9.84921 12.1707 9.44444 12.6289 9.44444 13.2132C9.44444 13.6912 9.74802 14.249 10.4159 14.3419C10.5373 14.3552 10.706 14.3552 10.7802 14.3552H13.0333C13.0738 14.3552 13.175 14.3552 13.1952 14.3619C13.4516 14.3951 13.5393 14.581 13.5393 14.747C13.5393 14.9063 13.4448 15.079 13.2155 15.1188Z" fill="black"/>
<path d="M7.7377 12.0446H6.86071V15.9421H7.7377V12.0446Z" fill="black"/>
<path d="M4.9246 15.9421V12.0446H4.04762V14.9528L1.12659 12.0446H0V15.9421H0.876984V13.0206L3.81825 15.9421H4.9246Z" fill="black"/>
<path d="M33.1298 12.0446V14.9528L30.2087 12.0446H29.0821V15.9421H29.9591V13.0206L32.8937 15.9421H34V12.0446H33.1298Z" fill="black"/>
<path d="M24.5151 12.0446L22.046 15.9421H23.1119L23.5504 15.245H26.431L26.8694 15.9421H27.9286L25.4595 12.0446H24.5151ZM25.979 14.5079H24.0024L24.994 12.941L25.979 14.5079Z" fill="black"/>
<path d="M4.87738 9.83353C6.64484 4.75409 11.5155 1.34124 17.0067 1.34124C22.498 1.34124 27.3754 4.75409 29.1361 9.83353L29.1496 9.87337H33.0151V9.41522L31.4095 9.22931C30.4179 9.11643 30.2087 8.68485 29.9389 8.14038L29.8714 8.00759C27.5508 3.14726 22.498 0 17.0067 0C11.5087 0 6.4627 3.14726 4.14206 8.02087L4.0746 8.15366C3.80476 8.69813 3.59563 9.12971 2.60397 9.24259L0.998413 9.4285V9.88665H4.85714L4.87738 9.83353Z" fill="black"/>
<path d="M29.1496 18.12L29.1361 18.1598C27.3687 23.2393 22.498 26.6455 17.0067 26.6455C11.5155 26.6455 6.6381 23.2326 4.87738 18.1532L4.86389 18.1133H1.00516V18.5715L2.61071 18.7574C3.60238 18.8703 3.81151 19.3019 4.08135 19.8463L4.14881 19.9791C6.46944 24.8527 11.5222 28 17.0135 28C22.5048 28 27.5575 24.8527 29.8782 19.9858L29.9456 19.853C30.2155 19.3085 30.4246 18.8769 31.4163 18.7641L33.0218 18.5781V18.12H29.1496Z" fill="black"/>
</svg>
