<svg width="28" height="32" viewBox="0 0 28 32" fill="none" xmlns="http://www.w3.org/2000/svg">
<path d="M0.10683 2.02584C4.22034 1.32516 8.35169 0.926447 12.5158 0.847291C17.6762 0.750545 22.798 1.15805 27.8871 2.02291C27.8961 2.07861 27.908 2.12258 27.908 2.16656C27.9704 3.908 28.021 5.6465 27.9912 7.38793C27.9615 9.18214 27.8485 10.9705 27.5897 12.75C27.2536 15.0573 26.6915 17.303 25.7575 19.4519C23.9194 23.6882 20.9926 27.0216 17.0933 29.537C16.1564 30.1409 15.1748 30.6628 14.1606 31.126C14.0475 31.1787 13.9583 31.1817 13.8423 31.126C7.63785 28.2001 3.42322 23.5622 1.36497 17.0626C0.9099 15.626 0.612467 14.1543 0.398314 12.6621C0.0770859 10.4252 -0.0180925 8.17363 0.00272789 5.91622C0.0146252 4.68783 0.0592399 3.46238 0.086009 2.23399C0.0919576 2.17242 0.0979067 2.10499 0.10683 2.02584ZM0.674928 2.59459C0.674928 2.70893 0.677903 2.78808 0.674928 2.87017C0.660057 3.4741 0.64221 4.0751 0.624364 4.67903C0.564878 6.7195 0.585698 8.75704 0.758209 10.7916C0.877183 12.1637 1.06754 13.5269 1.35903 14.8755C1.80815 16.96 2.48927 18.9653 3.5065 20.8503C5.85325 25.1893 9.32727 28.3584 13.8126 30.4751C13.9524 30.5396 14.0624 30.5279 14.1963 30.4663C15.2997 29.9562 16.3556 29.3669 17.358 28.6868C20.6744 26.4323 23.2412 23.5446 24.9485 19.9356C26.0163 17.6782 26.6468 15.2977 27.0038 12.838C27.2506 11.1347 27.3785 9.41961 27.3875 7.69869C27.3964 6.30027 27.3637 4.90184 27.3458 3.50049C27.3428 3.20439 27.322 2.90828 27.3101 2.59459C23.0003 1.8558 18.6697 1.47761 14.3063 1.46002C9.73773 1.4395 5.20187 1.81769 0.674928 2.59459Z" fill="black"/>
<path d="M0.674888 2.59463C5.20183 1.82066 9.73769 1.43953 14.3063 1.45713C18.6696 1.47472 23.0003 1.85291 27.3101 2.5917C27.322 2.90539 27.3428 3.20149 27.3458 3.49759C27.3636 4.89602 27.3934 6.29444 27.3874 7.6958C27.3785 9.41671 27.2506 11.1318 27.0037 12.8351C26.6468 15.2919 26.0162 17.6753 24.9485 19.9328C23.2442 23.5446 20.6743 26.4294 17.3579 28.6839C16.3556 29.367 15.2997 29.9533 14.1962 30.4635C14.0654 30.525 13.9523 30.5367 13.8125 30.4722C9.32724 28.3556 5.85023 25.1893 3.50646 20.8474C2.48923 18.9624 1.80811 16.9571 1.35899 14.8726C1.0675 13.524 0.877143 12.1637 0.758169 10.7888C0.582683 8.75415 0.564837 6.71661 0.624324 4.67614C0.64217 4.07221 0.657042 3.47121 0.674888 2.86728C0.677863 2.78812 0.674888 2.70603 0.674888 2.59463ZM26.8134 3.02852C18.2621 1.6213 9.73472 1.6213 1.1954 3.02559C1.18945 3.11647 1.1835 3.18976 1.18053 3.26306C1.16268 3.99892 1.13888 4.73478 1.12996 5.47357C1.10617 7.32641 1.12401 9.17924 1.30247 11.0262C1.43632 12.4041 1.63857 13.7732 1.95088 15.1247C2.36729 16.9219 2.95918 18.6604 3.81281 20.3051C6.04654 24.6088 9.41349 27.7721 13.8036 29.8976C13.9494 29.968 14.0594 29.9621 14.2022 29.8947C16.4448 28.8276 18.4525 27.4291 20.2193 25.6965C22.9051 23.0609 24.7224 19.924 25.7396 16.3297C26.4921 13.6765 26.7925 10.9588 26.861 8.21471C26.8877 7.1593 26.8729 6.10095 26.8669 5.04554C26.858 4.38297 26.8312 3.7204 26.8134 3.02852Z" fill="white"/>
<path d="M26.8134 3.02844C26.8312 3.72032 26.858 4.38289 26.864 5.04252C26.8729 6.09794 26.8848 7.15628 26.858 8.2117C26.7896 10.9558 26.4862 13.6735 25.7367 16.3267C24.7195 19.9209 22.9021 23.0579 20.2163 25.6935C18.4525 27.4261 16.4449 28.8245 14.1992 29.8917C14.0565 29.9591 13.9464 29.965 13.8007 29.8946C9.41055 27.7691 6.0436 24.6087 3.80987 20.3021C2.95624 18.6574 2.36434 16.9189 1.94794 15.1217C1.63563 13.7702 1.43338 12.404 1.29953 11.0261C1.12107 9.17916 1.10025 7.32632 1.12702 5.47348C1.13594 4.73762 1.15974 4.00177 1.17758 3.26297C1.18056 3.18968 1.18651 3.11639 1.19246 3.02551C9.73178 1.62122 18.2592 1.62122 26.8134 3.02844ZM15.4038 25.9134C15.5674 25.629 15.7102 25.3856 15.844 25.1365C15.9749 24.8961 16.1415 24.6908 16.3556 24.5179C17.5721 23.5299 18.7857 22.536 20.0081 21.551C20.1806 21.4132 20.2936 21.2607 20.3472 21.0467C20.5673 20.1555 20.7101 19.2525 20.7695 18.3378C20.8171 17.5932 20.8023 16.8514 20.722 16.1097C20.7041 15.9397 20.6446 15.7931 20.5494 15.6582C19.91 14.7435 19.1812 13.8992 18.4079 13.093C18.3187 12.9992 18.2116 12.9376 18.0599 12.9142C18.0688 12.9845 18.0718 13.0432 18.0837 13.0989C18.2265 13.7526 18.3722 14.4064 18.509 15.0631C18.5418 15.2243 18.6161 15.3504 18.7351 15.4647C19.1188 15.8371 19.4727 16.2299 19.7821 16.6667C19.9248 16.869 20.0081 17.0889 20.02 17.3322C20.0825 18.4844 20.0735 19.6366 19.9457 20.7858C19.9189 21.0174 19.8207 21.1786 19.6423 21.3282C18.5388 22.2546 17.4442 23.1927 16.3527 24.1309C16.0731 24.3713 15.8054 24.6234 15.6448 24.9635C15.6388 24.9752 15.621 24.9781 15.6031 24.9869C15.4068 24.4768 15.2968 23.9667 15.4633 23.4214C15.6477 22.8087 15.8113 22.1901 15.9809 21.5744C16.0047 21.4894 16.0225 21.4044 16.0433 21.3223C16.0284 21.3164 16.0136 21.3106 15.9987 21.3047C15.966 21.3663 15.9303 21.4278 15.9035 21.4923C15.6864 21.9849 15.4663 22.4715 15.2581 22.967C15.1094 23.3247 14.9785 23.6882 14.8357 24.0488C14.7614 24.2393 14.7614 24.4182 14.8447 24.6087C15.0023 24.9693 15.1451 25.3387 15.2968 25.7023C15.3235 25.758 15.3533 25.8137 15.4038 25.9134ZM12.028 13.5679L11.9477 13.5738C11.9566 13.7497 11.9625 13.9227 11.9804 14.0986C12.0042 14.336 12.0339 14.5706 12.0607 14.808C12.0815 14.9839 12.0458 15.1481 11.9477 15.2976C11.8346 15.4735 11.7335 15.6553 11.6175 15.8312C10.7668 17.0977 9.83588 18.3056 8.8365 19.4636C8.68481 19.6395 8.58071 19.8271 8.55394 20.0587C8.5123 20.4721 8.46471 20.8855 8.41712 21.2988C8.3963 21.4835 8.43497 21.6536 8.53907 21.809C8.68481 22.0259 8.82163 22.2487 8.97927 22.4569C9.81208 23.5709 10.7193 24.6263 11.6859 25.6348C11.9893 25.9515 12.3135 26.2358 12.7269 26.4059C12.8578 26.4587 12.9827 26.5319 13.1106 26.5935C13.1523 26.614 13.1969 26.6228 13.2415 26.6346C13.2504 26.6199 13.2593 26.6052 13.2683 26.5935C13.188 26.5202 13.1195 26.4323 13.0273 26.3766C12.7061 26.1889 12.4354 25.9427 12.1916 25.6671C11.2695 24.641 10.404 23.5739 9.60686 22.451C9.43732 22.2135 9.2886 21.9643 9.13394 21.7181C9.04471 21.5744 9.00009 21.419 9.01794 21.249C9.05065 20.9529 9.0804 20.6568 9.11906 20.3636C9.13988 20.2024 9.22614 20.0763 9.34809 19.9649C9.61875 19.7157 9.88644 19.4665 10.1452 19.2056C10.8947 18.4551 10.7282 18.7277 11.213 17.7075C11.5878 16.9218 11.9298 16.1185 12.2867 15.324C12.3462 15.1921 12.3938 15.0572 12.3581 14.9136C12.254 14.4592 12.138 14.0135 12.028 13.5679ZM13.5538 8.64852C13.5568 8.66905 13.5568 8.68957 13.5597 8.71302C13.6787 8.71595 13.7947 8.72768 13.9137 8.72182C14.6008 8.69836 15.2849 8.67491 15.9719 8.64266C16.2188 8.63093 16.4508 8.66611 16.6769 8.76579C17.0189 8.92117 17.361 9.07948 17.709 9.22314C17.8458 9.27884 17.9945 9.31988 18.1402 9.33748C18.4258 9.36972 18.7143 9.36679 18.9968 9.40197C19.1664 9.42249 19.3448 9.46061 19.4906 9.54269C20.0944 9.87691 20.6922 10.2287 21.2871 10.5776C21.4179 10.6538 21.5429 10.7124 21.7511 10.6949C21.3109 10.2815 20.9034 9.89743 20.4959 9.51338C20.4691 9.48699 20.4334 9.4694 20.4007 9.45181C19.4489 8.92117 18.4942 8.3964 17.4978 7.94784C17.2806 7.8511 17.0576 7.79833 16.8196 7.78953C16.3586 7.77194 15.9006 7.74556 15.4395 7.72797C14.1487 7.68106 12.8608 7.71917 11.5729 7.81299C11.3498 7.83058 11.2041 7.9156 11.1059 8.10323C10.9721 8.36122 10.7728 8.55764 10.5497 8.73941C10.1214 9.09121 9.69014 9.44302 9.21424 9.73326C9.11609 9.79189 9.01794 9.85639 8.97332 10.0059C9.19045 9.8857 9.38081 9.78016 9.57116 9.67755C10.3742 9.24952 11.1773 8.82443 11.9804 8.3964C12.1886 8.28499 12.4087 8.22049 12.6496 8.21463C13.0273 8.20583 13.4021 8.16772 13.7799 8.16479C14.7316 8.15306 15.6805 8.1472 16.6322 8.14427C16.7958 8.14427 16.9475 8.18825 17.0814 8.28206C15.8976 8.3876 14.7227 8.48435 13.5538 8.64852ZM5.52012 13.5064C5.50524 13.7556 5.45171 13.9725 5.27622 14.1484C5.11561 14.3067 4.96986 14.4797 4.82412 14.6497C4.72002 14.7699 4.7111 14.8256 4.80628 14.9458C4.99068 15.1804 5.18402 15.409 5.38032 15.6348C5.42791 15.6905 5.51119 15.7169 5.59447 15.7667C5.65694 15.4941 5.71642 15.2566 5.76401 15.0162C5.79673 14.8608 5.87704 14.7729 6.0436 14.7435C6.48083 14.6644 6.91508 14.5706 7.35231 14.4885C7.61405 14.4386 7.87877 14.3947 8.17323 14.3419C8.10482 14.2598 8.0602 14.2012 8.00964 14.1484C7.852 13.9872 7.68543 13.8347 7.53969 13.6647C7.36123 13.4565 7.14708 13.3568 6.86749 13.3656C6.70688 13.3686 6.54329 13.3393 6.3797 13.3246C6.37375 13.3099 6.3678 13.2953 6.36483 13.2806C6.42134 13.2396 6.47488 13.1927 6.53436 13.1575C6.57898 13.1311 6.63252 13.1223 6.68308 13.1047C7.44451 12.8203 8.20594 12.536 8.96737 12.2516C9.20829 12.1636 9.37188 11.9965 9.49086 11.7767C9.45814 11.7767 9.4284 11.7855 9.40757 11.803C9.13988 12.0434 8.81568 12.149 8.46768 12.2105C8.35763 12.2311 8.24758 12.2633 8.13753 12.2897C8.00369 12.322 7.87579 12.3278 7.74195 12.2692C7.67354 12.2399 7.58133 12.2399 7.504 12.2516C7.34041 12.278 7.1798 12.3249 7.01918 12.3601C6.97457 12.3689 6.92995 12.3718 6.8437 12.3806C6.98052 12.2428 7.08759 12.1461 7.23631 12.0962C7.39395 12.0434 7.54564 11.976 7.70328 11.9232C7.82225 11.8822 7.89364 11.8236 7.89959 11.6887C7.90553 11.548 7.94718 11.4102 7.96205 11.2695C7.97394 11.1639 8.02153 11.0906 8.10482 11.0291C8.2922 10.8913 8.47661 10.7506 8.66102 10.6069C8.71455 10.5659 8.77702 10.5307 8.79189 10.4251C8.5123 10.5893 8.26543 10.7476 8.00666 10.8825C7.54861 11.12 7.1798 11.4454 6.89128 11.8705C6.81098 11.9907 6.68903 12.0903 6.57303 12.1783C6.02873 12.5917 5.47848 12.9962 4.93417 13.4096C4.77951 13.5269 4.63971 13.6676 4.50884 13.8113C4.35418 13.9813 4.39284 14.1777 4.60699 14.3184C4.7111 14.2452 4.82115 14.166 4.9312 14.0898C5.09776 13.9725 5.26135 13.8582 5.34761 13.6617C5.37735 13.5972 5.46063 13.5562 5.52012 13.5064ZM17.236 10.8942C17.5394 10.9265 17.7922 10.9704 18.054 10.8796C18.2503 10.8092 18.4674 10.7887 18.6667 10.7271C18.9076 10.6538 19.1069 10.7066 19.3002 10.859C19.7523 11.2196 20.2044 11.5802 20.6625 11.932C20.8023 12.0405 20.9629 12.1285 21.1265 12.2047C21.4269 12.3425 21.7362 12.4656 22.0396 12.5946C22.2061 12.665 22.3073 12.7822 22.34 12.9581C22.3519 13.0168 22.3727 13.0725 22.3816 13.1311C22.4709 13.7497 22.5571 14.3683 22.6523 14.9869C22.7118 15.368 22.6434 15.7257 22.4649 16.0657C22.2359 16.4996 22.0098 16.9394 21.7749 17.3704C21.7213 17.4671 21.6529 17.5697 21.5637 17.6254C21.2782 17.7984 21.1532 18.0359 21.18 18.3613C21.1889 18.4785 21.1681 18.6017 21.1622 18.7219C21.2484 18.672 21.296 18.6163 21.3406 18.5577C21.9682 17.7251 22.4798 16.8221 22.9408 15.8898C22.9795 15.8107 23.0092 15.7227 23.0152 15.6348C23.1163 14.5266 23.0925 13.4213 22.8873 12.322C22.8575 12.1666 22.7891 12.0493 22.6553 11.9584C21.6767 11.2812 20.6535 10.6831 19.5709 10.1789C19.3508 10.0763 19.1426 10.0616 18.9195 10.1584C18.4139 10.3753 17.9082 10.5864 17.4026 10.8004C17.355 10.818 17.3134 10.8473 17.236 10.8942ZM14.4074 26.8134C14.4193 26.5818 14.3926 26.3648 14.2885 26.1567C14.1844 25.9485 14.0981 25.7345 14.0148 25.5205C13.7501 24.8491 13.4854 24.1749 13.2326 23.4976C13.1761 23.3481 13.1463 23.1751 13.1612 23.0168C13.2028 22.5653 13.2534 22.1139 13.3396 21.6682C13.5687 20.478 13.8215 19.2906 14.0624 18.1033C14.116 17.8336 14.0089 17.5873 13.9524 17.3322C13.9048 17.3938 13.875 17.4524 13.8512 17.514C13.7114 17.8746 13.5687 18.2352 13.4348 18.5987C13.0214 19.7245 12.6318 20.8591 12.3224 22.0171C12.2362 22.3367 12.26 22.621 12.3938 22.923C12.9649 24.213 13.6222 25.4589 14.3212 26.6873C14.3479 26.7313 14.3807 26.7723 14.4074 26.8134ZM8.2684 11.2489C8.27435 11.2665 8.2803 11.2841 8.28625 11.3017C8.44984 11.3017 8.61343 11.3105 8.77404 11.2988C9.13988 11.2724 9.51465 11.2988 9.87157 11.1903C10.3326 11.0525 10.7936 10.9147 11.2517 10.7652C11.3439 10.7359 11.448 10.6685 11.4985 10.5893C11.7454 10.1906 11.9804 9.78309 12.2153 9.37852C12.2243 9.36093 12.2243 9.33747 12.2332 9.29057C11.906 9.27884 11.5818 9.23486 11.2755 9.35506C10.7579 9.55735 10.2463 9.78016 9.7407 10.0059C9.61578 10.0616 9.5087 10.1671 9.41352 10.2668C9.26481 10.4251 9.12799 10.5922 9.00009 10.7681C8.86625 10.9499 8.70563 11.0818 8.4885 11.1493C8.4082 11.1727 8.33979 11.2167 8.2684 11.2489ZM8.30707 14.7054C8.3041 14.7201 8.30112 14.7348 8.29815 14.7523C8.36358 14.7787 8.43199 14.808 8.49743 14.8315C8.8603 14.9605 9.22316 15.0866 9.58306 15.2185C9.86265 15.3211 9.95188 15.5468 9.81506 15.8048C9.56522 16.2651 9.27373 16.699 8.93763 17.1036C8.87219 17.1798 8.78296 17.2531 8.69076 17.2853C8.36656 17.4026 8.03343 17.5023 7.70328 17.6108C7.59026 17.6489 7.50103 17.6283 7.41477 17.5521C7.30769 17.4583 7.19764 17.3645 7.09057 17.2736C7.05487 17.2443 7.01026 17.2179 6.95077 17.1769C6.92698 17.4612 6.89723 17.7104 7.01026 17.9655C7.11733 18.2 7.17682 18.458 7.24821 18.7072C7.30769 18.9154 7.34636 19.1264 7.3999 19.3346C7.43856 19.4812 7.48318 19.5164 7.62595 19.4841C7.84605 19.4343 8.06615 19.3815 8.27733 19.2994C8.38738 19.2554 8.47363 19.1528 8.56881 19.0737C8.49743 19.0444 8.44984 19.0444 8.40225 19.0561C8.22676 19.0942 8.05128 19.1411 7.87282 19.1704C7.71518 19.1997 7.68841 19.1763 7.65569 19.0238C7.61107 18.804 7.57241 18.5841 7.53672 18.3642C7.50102 18.1648 7.51292 18.1502 7.72113 18.0798C8.1762 17.9244 8.63425 17.7691 9.09229 17.6196C9.21127 17.5814 9.31537 17.5287 9.37783 17.4173C9.71393 16.8339 10.05 16.2534 10.3802 15.67C10.4099 15.6172 10.4337 15.5322 10.4129 15.4794C10.3385 15.2918 10.2463 15.1129 10.0143 15.0602C9.53844 14.9488 9.06255 14.8256 8.58666 14.7142C8.49445 14.6996 8.39928 14.7084 8.30707 14.7054ZM15.8173 13.7907C15.8054 13.7174 15.7994 13.6735 15.7905 13.6324C15.6983 13.1956 15.6061 12.7588 15.5109 12.3249C15.4752 12.1578 15.4663 12.0053 15.5942 11.8646C15.6745 11.7767 15.731 11.6711 15.7965 11.5685C16.1653 10.9792 16.1623 11.1522 15.9957 10.39C15.9898 10.3606 15.9838 10.3313 15.9719 10.3049C15.9541 10.2727 15.9333 10.2346 15.9035 10.2199C15.7191 10.1232 15.5407 10.0206 15.3087 10.0704C14.69 10.2023 14.0684 10.3137 13.4467 10.4369C13.182 10.4896 13.0392 10.6567 13.0006 10.947C13.1314 10.9704 13.2653 10.988 13.3962 11.0203C13.5865 11.0701 13.762 11.0408 13.9434 10.9646C14.3242 10.8063 14.7168 10.6743 15.1005 10.516C15.2462 10.4545 15.38 10.472 15.5139 10.5277C15.7399 10.6216 15.8381 10.9441 15.6953 11.1375C15.5288 11.3662 15.3562 11.592 15.1778 11.8148C15.1005 11.9115 15.0796 12.0024 15.1183 12.1226C15.264 12.5682 15.4009 13.0168 15.5377 13.4624C15.5793 13.5972 15.6537 13.6969 15.8173 13.7907ZM8.64317 5.60834C7.95312 5.65525 7.28687 5.70216 6.61765 5.74613V5.26533C7.22144 5.21842 7.81333 5.17445 8.41415 5.12754V4.82851C7.81036 4.87248 7.22144 4.91353 6.62062 4.95457V4.51481C7.30174 4.46498 7.968 4.41514 8.63722 4.36237C8.64317 4.3008 8.64912 4.25682 8.64912 4.21285C8.64912 4.1718 8.6402 4.12783 8.63425 4.05747C7.8401 4.1161 7.0638 4.17474 6.2875 4.23337V6.07741C7.08164 6.01878 7.86092 5.96015 8.6402 5.90151V5.60834H8.64317ZM14.9458 5.45296C14.3896 5.45296 13.8602 5.45589 13.3337 5.45003C13.1671 5.45003 13.1047 5.3826 13.1017 5.21549C13.0958 4.98389 13.0987 4.75521 13.1017 4.52361C13.1017 4.25096 13.1374 4.21285 13.414 4.20992C13.9107 4.20698 14.4104 4.20992 14.9071 4.21285C14.9874 4.21285 15.0677 4.21285 15.154 4.21285V3.92261C15.1034 3.91675 15.0677 3.91088 15.032 3.91088C14.4877 3.90795 13.9464 3.90502 13.4021 3.90795C13.3188 3.90795 13.2355 3.91968 13.1552 3.93727C12.9262 3.98417 12.7983 4.10144 12.7864 4.32719C12.7715 4.67606 12.7715 5.02786 12.7864 5.37674C12.7953 5.58489 12.9203 5.69629 13.1285 5.73147C13.2236 5.74906 13.3248 5.75493 13.42 5.75786C13.9702 5.76372 14.5205 5.76372 15.0737 5.76665C15.1391 5.76665 15.2046 5.75786 15.2849 5.752C15.2938 5.38553 15.2997 5.03373 15.2819 4.67899H14V4.97509H14.9428V5.45296H14.9458ZM16.4211 4.2451C17.1111 4.26855 17.7803 4.29494 18.4585 4.31839V4.02522C17.6673 3.98711 16.888 3.94313 16.0879 3.9402C16.0879 4.56759 16.085 5.16565 16.0879 5.77252C16.8999 5.80183 17.6792 5.83115 18.4734 5.8634C18.4674 5.74613 18.4644 5.66111 18.4585 5.56143C17.7655 5.53212 17.0962 5.50573 16.4211 5.47935V5.022C16.7363 5.022 17.0338 5.022 17.3342 5.022C17.6316 5.02493 17.9291 5.07477 18.2235 5.04839V4.75815C17.6138 4.73469 17.0219 4.71124 16.4181 4.68485V4.2451H16.4211ZM21.8403 5.18031C21.8403 5.03959 21.8403 4.89887 21.8403 4.75815C21.8403 4.74349 21.8403 4.72883 21.8403 4.71417C21.8284 4.47084 21.7213 4.33012 21.4834 4.25682C21.412 4.23337 21.3376 4.21871 21.2633 4.21285C20.8052 4.17767 20.3472 4.14249 19.8891 4.11024C19.8059 4.10437 19.7226 4.10731 19.6423 4.1161C19.4014 4.13956 19.2794 4.24803 19.2705 4.48257C19.2556 4.82264 19.2556 5.16565 19.2735 5.50866C19.2824 5.74027 19.4014 5.85754 19.6304 5.91031C19.7315 5.93376 19.8386 5.94549 19.9427 5.95428C20.2728 5.98067 20.603 6.00705 20.9331 6.02758C21.1146 6.0393 21.296 6.05103 21.4745 6.04223C21.7094 6.03051 21.8314 5.90444 21.8403 5.67284C21.8463 5.50866 21.8403 5.34449 21.8403 5.18031ZM3.39941 5.81942C3.82772 5.77252 4.2233 5.72854 4.62187 5.68163C4.80925 5.65818 4.99663 5.63766 5.17807 5.59955C5.3595 5.56143 5.4993 5.44417 5.52309 5.25654C5.54688 5.06598 5.54689 4.87248 5.52607 4.68192C5.50822 4.50895 5.38627 4.40634 5.21078 4.37996C5.13048 4.36823 5.04422 4.36237 4.96392 4.37116C4.59807 4.40634 4.22925 4.44445 3.86341 4.4855C3.60464 4.51481 3.34588 4.54999 3.08413 4.58518V6.42043C3.19121 6.4087 3.28639 6.39697 3.39941 6.38231V5.81942ZM9.77937 4.01642C9.65742 4.02229 9.56224 4.02815 9.44327 4.03401C9.44327 4.13076 9.44327 4.21285 9.44327 4.292C9.44327 4.63501 9.44029 4.97802 9.44327 5.3181C9.44922 5.69629 9.57711 5.82236 9.96675 5.83408C9.98162 5.83408 9.99649 5.83408 10.0114 5.83408C10.4932 5.81649 10.978 5.80477 11.4599 5.77545C11.8495 5.752 11.9744 5.61421 11.9774 5.22136C11.9804 4.85782 11.9774 4.49136 11.9774 4.12783C11.9774 4.06919 11.9715 4.01349 11.9655 3.94606H11.6532C11.6502 4.02815 11.6413 4.10144 11.6413 4.17474C11.6413 4.5324 11.6443 4.89007 11.6383 5.24774C11.6354 5.42951 11.5997 5.47348 11.4123 5.48228C10.9364 5.50573 10.4635 5.52332 9.98757 5.53798C9.82101 5.54384 9.77937 5.49694 9.77639 5.32103C9.77342 5.13634 9.77639 4.94871 9.77639 4.76401C9.77937 4.52947 9.77937 4.292 9.77937 4.01642ZM24.9187 4.57931C24.0859 4.48843 23.2739 4.39755 22.4441 4.30666V4.61156C22.801 4.6526 23.149 4.69072 23.5208 4.73176V6.25918C23.6398 6.27384 23.735 6.2885 23.8599 6.30316V4.76987C24.2287 4.80799 24.5707 4.84317 24.9187 4.88128V4.57931ZM9.35106 16.1361C9.33322 16.1185 9.31834 16.1039 9.3005 16.0863C8.80378 16.4908 8.3041 16.8954 7.80738 17.3C7.81333 17.3147 7.82225 17.3264 7.8282 17.341C8.09589 17.2502 8.36358 17.1593 8.63127 17.0625C8.66994 17.0479 8.7086 17.0156 8.73537 16.9804C8.9406 16.7019 9.14583 16.4205 9.35106 16.1361ZM6.43026 15.5146C6.15662 15.582 5.95437 15.6817 5.8354 15.9104C5.99006 16.0863 6.12688 16.2387 6.28155 16.4146C6.30237 16.3413 6.31724 16.3003 6.32319 16.2592C6.35888 16.0247 6.3916 15.7931 6.43026 15.5146ZM8.40522 11.5509C8.39927 11.7063 8.39333 11.8353 8.38738 11.9672C8.8365 11.9203 8.90789 11.8412 8.78891 11.5304C8.67589 11.5363 8.55691 11.5421 8.40522 11.5509Z" fill="black"/>
<path d="M15.4039 25.9136C15.3533 25.8139 15.3236 25.7553 15.2968 25.6966C15.1451 25.3331 15.0023 24.9637 14.8447 24.6031C14.7614 24.4125 14.7614 24.2308 14.8358 24.0431C14.9786 23.6825 15.1064 23.319 15.2581 22.9613C15.4663 22.4659 15.6864 21.9763 15.9036 21.4867C15.9333 21.4222 15.966 21.3606 15.9987 21.2991C16.0136 21.3049 16.0285 21.3108 16.0434 21.3166C16.0225 21.4017 16.0047 21.4867 15.9809 21.5688C15.8084 22.1844 15.6478 22.806 15.4634 23.4158C15.2968 23.961 15.4098 24.4741 15.6032 24.9842C15.618 24.9754 15.6389 24.9725 15.6448 24.9608C15.8054 24.6207 16.0731 24.3686 16.3527 24.1282C17.4473 23.19 18.5418 22.2548 19.6423 21.3254C19.8208 21.1759 19.9189 21.0147 19.9457 20.7831C20.0736 19.6338 20.0825 18.4817 20.0201 17.3295C20.0082 17.0862 19.9219 16.8663 19.7821 16.664C19.4757 16.2272 19.1188 15.8344 18.7351 15.462C18.6191 15.3477 18.5448 15.2216 18.5091 15.0604C18.3723 14.4037 18.2265 13.7528 18.0838 13.0961C18.0719 13.0404 18.0689 12.9818 18.06 12.9114C18.2087 12.9349 18.3158 12.9965 18.408 13.0903C19.1813 13.8965 19.91 14.7408 20.5495 15.6555C20.6447 15.7933 20.7041 15.937 20.722 16.107C20.8023 16.8487 20.8172 17.5904 20.7696 18.3351C20.7131 19.2498 20.5673 20.1528 20.3472 21.044C20.2937 21.2609 20.1807 21.4105 20.0082 21.5483C18.7857 22.5304 17.5722 23.5242 16.3557 24.5151C16.1445 24.6881 15.975 24.8933 15.8441 25.1337C15.7102 25.3859 15.5675 25.6292 15.4039 25.9136Z" fill="white"/>
<path d="M12.0279 13.568C12.141 14.0136 12.254 14.4592 12.3611 14.9078C12.3968 15.0514 12.3492 15.1863 12.2897 15.3182C11.9328 16.1127 11.5907 16.916 11.216 17.7017C10.7311 18.7219 10.8977 18.4493 10.1482 19.1998C9.8894 19.4607 9.62171 19.7099 9.35104 19.9591C9.22909 20.0705 9.14284 20.1966 9.12202 20.3578C9.08335 20.6539 9.05361 20.9471 9.02089 21.2432C9.00305 21.4132 9.04766 21.5686 9.13689 21.7122C9.29156 21.9585 9.44027 22.2077 9.60981 22.4452C10.4069 23.568 11.2725 24.6381 12.1945 25.6613C12.4414 25.9368 12.7091 26.1831 13.0303 26.3707C13.1225 26.4235 13.1909 26.5144 13.2712 26.5877C13.2623 26.6023 13.2534 26.617 13.2445 26.6287C13.1998 26.6141 13.1552 26.6053 13.1136 26.5877C12.9857 26.5261 12.8608 26.4528 12.7299 26.4001C12.3165 26.23 11.9923 25.9456 11.6889 25.629C10.7222 24.6234 9.81801 23.568 8.98223 22.451C8.82459 22.2429 8.68776 22.0201 8.54202 21.8031C8.44089 21.6478 8.39925 21.4777 8.42007 21.293C8.46766 20.8796 8.51525 20.4663 8.55689 20.0529C8.58069 19.8213 8.68479 19.6337 8.83946 19.4578C9.83288 18.3027 10.7668 17.0948 11.6175 15.8283C11.7335 15.6553 11.8346 15.4706 11.9476 15.2947C12.0458 15.1423 12.0815 14.981 12.0607 14.8051C12.0339 14.5677 12.0012 14.3331 11.9804 14.0957C11.9625 13.9227 11.9595 13.7468 11.9476 13.5709L12.0279 13.568Z" fill="white"/>
<path d="M13.5538 8.64858C14.7227 8.4844 15.8976 8.38765 17.0784 8.28797C16.9446 8.19123 16.7929 8.14725 16.6293 8.15018C15.6775 8.15312 14.7287 8.15605 13.7769 8.17071C13.3991 8.17657 13.0244 8.21468 12.6466 8.22055C12.4057 8.22641 12.1886 8.29091 11.9774 8.40231C11.1743 8.83034 10.3713 9.25544 9.56819 9.68347C9.37784 9.78608 9.18748 9.89162 8.97035 10.0118C9.01497 9.85937 9.11312 9.7978 9.21127 9.73917C9.68717 9.44893 10.1184 9.10006 10.5468 8.74532C10.7698 8.56356 10.9721 8.3642 11.103 8.10914C11.2011 7.92151 11.3439 7.83649 11.5699 7.8189C12.8578 7.72215 14.1457 7.68697 15.4366 7.73388C15.8976 7.75147 16.3556 7.77493 16.8167 7.79545C17.0546 7.80424 17.2777 7.85701 17.4948 7.95376C18.4912 8.40231 19.446 8.92709 20.3978 9.45773C20.4305 9.47532 20.4662 9.49291 20.4929 9.51929C20.9004 9.90335 21.3079 10.2874 21.7481 10.7008C21.5429 10.7184 21.415 10.6597 21.2841 10.5835C20.6892 10.2317 20.0944 9.88282 19.4876 9.54861C19.3419 9.46945 19.1634 9.43134 18.9939 9.41082C18.7113 9.37564 18.4198 9.37857 18.1373 9.34632C17.9915 9.32873 17.8428 9.29062 17.706 9.23198C17.358 9.08833 17.0159 8.93295 16.6739 8.77464C16.4478 8.67203 16.2158 8.63978 15.969 8.65151C15.2819 8.68375 14.5978 8.70721 13.9107 8.73066C13.7947 8.73359 13.6758 8.7248 13.5568 8.72187C13.5568 8.68962 13.5568 8.6691 13.5538 8.64858Z" fill="white"/>
<path d="M5.52014 13.5064C5.46362 13.5562 5.38034 13.5972 5.3506 13.6617C5.26434 13.8582 5.09778 13.9725 4.93419 14.0898C4.82414 14.1689 4.71409 14.2452 4.60999 14.3184C4.39584 14.1748 4.35717 13.9813 4.51184 13.8113C4.64271 13.6676 4.7825 13.5298 4.93717 13.4096C5.4785 12.9933 6.03172 12.5917 6.57603 12.1783C6.695 12.0874 6.81397 11.9877 6.89428 11.8705C7.18279 11.4454 7.55458 11.1229 8.00966 10.8825C8.26842 10.7476 8.51529 10.5893 8.79488 10.4251C8.78298 10.5307 8.71755 10.5688 8.66401 10.6069C8.4796 10.7476 8.29519 10.8913 8.10781 11.0291C8.02453 11.0906 7.97396 11.1639 7.96504 11.2695C7.95017 11.4102 7.9115 11.548 7.90258 11.6887C7.89663 11.8265 7.82525 11.8851 7.70627 11.9232C7.54863 11.976 7.39694 12.0434 7.2393 12.0962C7.09059 12.1461 6.98054 12.2428 6.84669 12.3806C6.92997 12.3718 6.97756 12.3718 7.02218 12.3601C7.18279 12.3249 7.3434 12.278 7.50699 12.2516C7.58433 12.2399 7.67653 12.2369 7.74494 12.2692C7.87879 12.3278 8.00668 12.322 8.14053 12.2897C8.25058 12.2633 8.36063 12.2311 8.47068 12.2106C8.8157 12.1461 9.14288 12.0434 9.41057 11.803C9.43139 11.7855 9.45816 11.7767 9.49385 11.7767C9.37488 11.9936 9.21129 12.1607 8.97037 12.2516C8.20894 12.536 7.44751 12.8203 6.68608 13.1047C6.63551 13.1223 6.58198 13.134 6.53736 13.1575C6.47787 13.1927 6.42434 13.2396 6.36782 13.2806C6.37377 13.2953 6.37972 13.3099 6.38269 13.3246C6.54628 13.3393 6.7069 13.3686 6.87049 13.3656C7.15007 13.3598 7.36423 13.4565 7.54269 13.6647C7.68843 13.8347 7.85797 13.9872 8.01263 14.1484C8.06319 14.2012 8.10781 14.2598 8.17622 14.3419C7.88176 14.3947 7.61704 14.4387 7.3553 14.4885C6.91808 14.5735 6.48382 14.6673 6.04659 14.7435C5.88003 14.7729 5.79972 14.8608 5.76701 15.0162C5.71644 15.2566 5.65993 15.4941 5.59747 15.7667C5.51419 15.7169 5.43388 15.6905 5.38332 15.6348C5.18404 15.409 4.99368 15.1804 4.80927 14.9458C4.71409 14.8256 4.72301 14.7699 4.82712 14.6497C4.97286 14.4797 5.1186 14.3067 5.27922 14.1484C5.44875 13.9725 5.50229 13.7556 5.52014 13.5064Z" fill="white"/>
<path d="M17.236 10.8943C17.3163 10.8474 17.355 10.818 17.3996 10.8004C17.9053 10.5864 18.4139 10.3753 18.9165 10.1584C19.1396 10.0617 19.3478 10.0763 19.5679 10.1789C20.6506 10.6802 21.6737 11.2812 22.6523 11.9585C22.7862 12.0523 22.8546 12.1666 22.8843 12.322C23.0895 13.4214 23.1133 14.5266 23.0122 15.6348C23.0033 15.7228 22.9765 15.8107 22.9378 15.8899C22.4798 16.8222 21.9682 17.7222 21.3377 18.5577C21.293 18.6164 21.2454 18.6721 21.1592 18.7219C21.1651 18.6017 21.186 18.4815 21.177 18.3613C21.1503 18.033 21.2752 17.7955 21.5607 17.6255C21.65 17.5698 21.7213 17.4672 21.7719 17.3704C22.0069 16.9365 22.2329 16.4997 22.4619 16.0658C22.6404 15.7257 22.7088 15.368 22.6493 14.9869C22.5542 14.3683 22.4709 13.7497 22.3787 13.1312C22.3697 13.0725 22.3489 13.0168 22.337 12.9582C22.3043 12.7823 22.2002 12.665 22.0366 12.5946C21.7303 12.4686 21.4239 12.3455 21.1235 12.2047C20.9629 12.1285 20.8023 12.0406 20.6595 11.9321C20.1985 11.5803 19.7464 11.2226 19.2973 10.8591C19.1069 10.7066 18.9046 10.6568 18.6637 10.7272C18.4615 10.7887 18.2473 10.8092 18.051 10.8796C17.7922 10.9705 17.5394 10.9265 17.236 10.8943Z" fill="white"/>
<path d="M14.4075 26.8133C14.3777 26.7723 14.345 26.7312 14.3212 26.6872C13.6222 25.4618 12.9619 24.2158 12.3938 22.9229C12.26 22.621 12.2362 22.3336 12.3225 22.017C12.6318 20.8561 13.0214 19.7244 13.4349 18.5986C13.5687 18.2351 13.7115 17.8745 13.8513 17.5139C13.8751 17.4524 13.9048 17.3937 13.9524 17.3322C14.0119 17.5872 14.119 17.8335 14.0625 18.1032C13.8215 19.2905 13.5717 20.4779 13.3397 21.6681C13.2534 22.1138 13.2058 22.5653 13.1612 23.0167C13.1464 23.175 13.1761 23.348 13.2326 23.4975C13.4825 24.1748 13.7501 24.8461 14.0149 25.5204C14.0981 25.7344 14.1874 25.9514 14.2885 26.1566C14.3926 26.3618 14.4223 26.5817 14.4075 26.8133Z" fill="white"/>
<path d="M8.26842 11.249C8.3398 11.2138 8.41119 11.1698 8.48554 11.1464C8.70267 11.079 8.86328 10.947 8.99713 10.7653C9.12503 10.5894 9.26184 10.4223 9.41056 10.264C9.50574 10.1613 9.61579 10.0587 9.73774 10.003C10.2434 9.77436 10.755 9.55448 11.2725 9.35219C11.5789 9.23199 11.9031 9.27597 12.2302 9.28769C12.2213 9.3346 12.2243 9.35805 12.2124 9.37564C11.9744 9.78022 11.7424 10.1907 11.4956 10.5864C11.445 10.6656 11.3439 10.733 11.2487 10.7623C10.7907 10.9119 10.3296 11.0496 9.86861 11.1874C9.50872 11.2959 9.13692 11.2666 8.77108 11.2959C8.61047 11.3076 8.44688 11.2988 8.28329 11.2988C8.27734 11.2842 8.27437 11.2666 8.26842 11.249Z" fill="white"/>
<path d="M8.30704 14.7053C8.39925 14.7082 8.49443 14.6994 8.58366 14.72C9.05955 14.8314 9.53544 14.9545 10.0113 15.0659C10.2433 15.1187 10.3355 15.2975 10.4099 15.4851C10.4307 15.5379 10.4069 15.62 10.3772 15.6757C10.047 16.2591 9.71093 16.8425 9.37483 17.423C9.31237 17.5344 9.20529 17.5872 9.08929 17.6253C8.63124 17.7777 8.17617 17.9331 7.71812 18.0856C7.50992 18.1559 7.501 18.1706 7.53371 18.3699C7.57238 18.5898 7.61105 18.8097 7.65269 19.0296C7.68243 19.182 7.71217 19.2025 7.86981 19.1761C8.04827 19.1439 8.22376 19.097 8.39925 19.0618C8.44684 19.053 8.4974 19.0501 8.56581 19.0794C8.46766 19.1556 8.38437 19.2612 8.27432 19.3051C8.06612 19.3872 7.84305 19.44 7.62294 19.4898C7.48018 19.5221 7.43556 19.4869 7.39689 19.3403C7.34336 19.1322 7.30172 18.9182 7.2452 18.71C7.17382 18.4608 7.11433 18.2028 7.00726 17.9683C6.89126 17.7132 6.92398 17.464 6.94777 17.1797C7.00726 17.2207 7.05187 17.2442 7.08756 17.2764C7.19761 17.3673 7.30766 17.4582 7.41177 17.5549C7.49802 17.6311 7.58725 17.6517 7.70028 17.6135C8.02745 17.5021 8.36058 17.4054 8.68776 17.2881C8.77996 17.2529 8.87217 17.1826 8.93463 17.1064C9.27073 16.7018 9.56221 16.2679 9.81206 15.8076C9.94888 15.5526 9.85965 15.3239 9.58006 15.2213C9.22016 15.0893 8.85729 14.9633 8.49443 14.8343C8.42602 14.8108 8.36058 14.7815 8.29514 14.7551C8.30109 14.7346 8.30407 14.72 8.30704 14.7053Z" fill="white"/>
<path d="M15.8173 13.7907C15.6537 13.6969 15.5793 13.5943 15.5377 13.4594C15.4009 13.0109 15.2611 12.5653 15.1183 12.1197C15.0796 11.9995 15.1004 11.9086 15.1778 11.8118C15.3562 11.589 15.5288 11.3633 15.6953 11.1346C15.8381 10.9411 15.737 10.6186 15.5139 10.5248C15.38 10.4691 15.2492 10.4544 15.1004 10.5131C14.7168 10.6685 14.3241 10.8033 13.9434 10.9616C13.762 11.0379 13.5865 11.0642 13.3962 11.0173C13.2653 10.9851 13.1314 10.9675 13.0006 10.944C13.0392 10.6538 13.182 10.4867 13.4467 10.4339C14.0654 10.3108 14.69 10.1965 15.3086 10.0675C15.5406 10.0176 15.7191 10.1202 15.9035 10.217C15.9333 10.2316 15.9541 10.2697 15.9719 10.302C15.9868 10.3284 15.9898 10.3577 15.9957 10.387C16.1623 11.1493 16.1653 10.9763 15.7964 11.5656C15.734 11.6682 15.6745 11.7737 15.5942 11.8617C15.4663 12.0024 15.4752 12.1578 15.5109 12.3219C15.6061 12.7588 15.6983 13.1927 15.7905 13.6295C15.7994 13.6735 15.8054 13.7174 15.8173 13.7907Z" fill="white"/>
<path d="M8.64312 5.60832V5.90735C7.86087 5.96599 7.08457 6.02462 6.29042 6.08326V4.23921C7.06672 4.18058 7.846 4.12194 8.63717 4.06331C8.64312 4.13367 8.65204 4.17471 8.65204 4.21869C8.65204 4.26266 8.6461 4.30664 8.64015 4.36821C7.97092 4.41805 7.30467 4.46788 6.62354 4.52065V4.96041C7.22436 4.91644 7.81328 4.87539 8.41707 4.83435V5.13338C7.81626 5.18029 7.22436 5.22427 6.62057 5.27117V5.75197C7.28682 5.70213 7.9501 5.65523 8.64312 5.60832Z" fill="white"/>
<path d="M14.9458 5.45303V4.9693H14.0029V4.6732H15.2849C15.3027 5.02794 15.2968 5.37974 15.2879 5.7462C15.2075 5.75207 15.1421 5.76086 15.0767 5.76086C14.5264 5.76086 13.9762 5.75793 13.4229 5.75207C13.3248 5.75207 13.2266 5.74327 13.1315 5.72861C12.9233 5.69343 12.7983 5.5791 12.7894 5.37388C12.7745 5.025 12.7745 4.6732 12.7894 4.32432C12.8013 4.09858 12.9292 3.98131 13.1582 3.93441C13.2385 3.91682 13.3218 3.90509 13.4051 3.90509C13.9494 3.90509 14.4907 3.90802 15.035 3.90802C15.0707 3.90802 15.1064 3.91389 15.157 3.91975V4.20999C15.0707 4.20999 14.9904 4.20999 14.9101 4.20999C14.4134 4.20999 13.9137 4.20706 13.417 4.20706C13.1404 4.20706 13.1047 4.2481 13.1047 4.52075C13.1047 4.75235 13.1017 4.98103 13.1047 5.21263C13.1077 5.37974 13.1701 5.44717 13.3367 5.44717C13.8631 5.45596 14.3896 5.45303 14.9458 5.45303Z" fill="white"/>
<path d="M16.4211 4.24516V4.68492C17.0248 4.70837 17.6167 4.73182 18.2265 4.75821V5.04845C17.932 5.07483 17.6346 5.02206 17.3372 5.02206C17.0367 5.01913 16.7363 5.02206 16.424 5.02206V5.47941C17.0992 5.50579 17.7684 5.53511 18.4615 5.5615C18.4674 5.65824 18.4704 5.74326 18.4763 5.86346C17.6822 5.83415 16.9029 5.80483 16.0909 5.77258C16.0879 5.16572 16.0909 4.56765 16.0909 3.94026C16.891 3.94319 17.6703 3.98717 18.4615 4.02528V4.31845C17.7803 4.29207 17.1141 4.26861 16.4211 4.24516Z" fill="white"/>
<path d="M21.8403 5.18038C21.8403 5.34456 21.8463 5.50873 21.8374 5.66998C21.8255 5.90158 21.7035 6.02764 21.4715 6.03937C21.2901 6.04817 21.1086 6.03644 20.9302 6.02471C20.6 6.00419 20.2699 5.97781 19.9397 5.95142C19.8356 5.94262 19.7285 5.9309 19.6274 5.90744C19.3984 5.85467 19.2824 5.7374 19.2705 5.5058C19.2556 5.16572 19.2556 4.82271 19.2675 4.4797C19.2764 4.24517 19.4014 4.13669 19.6393 4.11324C19.7226 4.10444 19.8059 4.10151 19.8862 4.10737C20.3442 4.13962 20.8023 4.17187 21.2603 4.20998C21.3347 4.21585 21.409 4.23344 21.4804 4.25396C21.7184 4.32725 21.8255 4.46797 21.8374 4.71131C21.8374 4.72597 21.8374 4.74062 21.8374 4.75528C21.8433 4.89894 21.8433 5.03966 21.8403 5.18038ZM21.5191 5.15399C21.5191 5.01914 21.5221 4.88721 21.5191 4.75235C21.5131 4.59111 21.4656 4.53247 21.3079 4.52075C20.8053 4.47677 20.3026 4.43866 19.7999 4.40348C19.6601 4.39468 19.5947 4.44452 19.5917 4.57938C19.5828 4.86962 19.5828 5.15693 19.5917 5.44717C19.5947 5.57323 19.6631 5.62893 19.797 5.64066C20.2996 5.6817 20.8023 5.71688 21.3049 5.75206C21.4566 5.76086 21.5072 5.70809 21.5161 5.55857C21.525 5.42078 21.5191 5.28592 21.5191 5.15399Z" fill="white"/>
<path d="M3.39939 5.8195V6.38532C3.28636 6.39998 3.19118 6.40877 3.08411 6.42343V4.58818C3.34585 4.55593 3.60461 4.51782 3.86338 4.48851C4.22923 4.44746 4.59804 4.40935 4.96389 4.37417C5.04419 4.36537 5.13045 4.37124 5.21076 4.38296C5.38624 4.40935 5.50819 4.51196 5.52604 4.68493C5.54388 4.87549 5.54686 5.06898 5.52306 5.25955C5.49927 5.44717 5.35947 5.56151 5.17804 5.60255C4.99661 5.6436 4.80625 5.66119 4.62184 5.68464C4.22625 5.72862 3.82769 5.77259 3.39939 5.8195ZM3.41426 5.51167C3.5838 5.49408 3.72359 5.47649 3.86636 5.46183C4.24707 5.42079 4.62779 5.37975 5.0085 5.33284C5.17507 5.31232 5.21076 5.26541 5.21671 5.10123C5.21968 5.02794 5.21968 4.95172 5.21671 4.87842C5.21076 4.69373 5.16317 4.65268 4.98471 4.67027C4.70809 4.69666 4.43148 4.72597 4.15487 4.75822C3.91097 4.78754 3.66708 4.81979 3.41426 4.85204V5.51167Z" fill="white"/>
<path d="M9.77933 4.01653C9.77933 4.29211 9.77933 4.52958 9.77933 4.76704C9.77933 4.95174 9.77635 5.13937 9.77933 5.32407C9.7823 5.49704 9.82394 5.54395 9.9905 5.54101C10.4664 5.52636 10.9423 5.50877 11.4152 5.48531C11.6026 5.47652 11.6383 5.43254 11.6413 5.25078C11.6442 4.89311 11.6413 4.53544 11.6442 4.17777C11.6442 4.10448 11.6502 4.03412 11.6561 3.9491H11.9684C11.9714 4.01359 11.9803 4.07223 11.9803 4.13086C11.9803 4.49439 11.9833 4.86086 11.9803 5.22439C11.9774 5.61431 11.8524 5.75503 11.4628 5.77848C10.981 5.80487 10.4991 5.81659 10.0143 5.83712C9.99943 5.83712 9.98456 5.83712 9.96968 5.83712C9.58302 5.82246 9.45215 5.69933 9.4462 5.32114C9.44025 4.97813 9.4462 4.63512 9.4462 4.29504C9.4462 4.21588 9.4462 4.13379 9.4462 4.03705C9.5622 4.02825 9.65738 4.02239 9.77933 4.01653Z" fill="white"/>
<path d="M24.9187 4.57935V4.88132C24.5707 4.84614 24.2287 4.80802 23.8599 4.76991V6.3032C23.735 6.2856 23.6398 6.27388 23.5208 6.25922V4.72887C23.149 4.68782 22.801 4.64971 22.4441 4.60867V4.3067C23.271 4.39758 24.0859 4.48847 24.9187 4.57935Z" fill="white"/>
<path d="M9.35107 16.1362C9.14584 16.4176 8.94061 16.702 8.73241 16.9835C8.70564 17.0186 8.66697 17.0509 8.6283 17.0656C8.36359 17.1623 8.09292 17.2532 7.82821 17.3441C7.82226 17.3294 7.81334 17.3177 7.80739 17.303C8.3041 16.8984 8.80379 16.4939 9.3005 16.0893C9.31538 16.104 9.33322 16.1215 9.35107 16.1362Z" fill="white"/>
<path d="M6.43023 15.5146C6.39156 15.7902 6.35884 16.0248 6.32315 16.2593C6.3172 16.3003 6.30233 16.3414 6.28151 16.4147C6.12684 16.2388 5.99002 16.0863 5.83536 15.9104C5.95433 15.6818 6.15361 15.5821 6.43023 15.5146Z" fill="white"/>
<path d="M8.40525 11.5509C8.55694 11.5422 8.67592 11.5363 8.78894 11.5304C8.90791 11.8412 8.83653 11.9174 8.38741 11.9673C8.39335 11.8353 8.39633 11.7063 8.40525 11.5509Z" fill="white"/>
<path d="M21.5191 5.1538C21.5191 5.28866 21.5221 5.42058 21.5191 5.55544C21.5131 5.70496 21.4596 5.75773 21.3109 5.74894C20.8082 5.71669 20.3056 5.67857 19.8029 5.63753C19.669 5.6258 19.6006 5.5701 19.5977 5.44404C19.5887 5.1538 19.5887 4.86649 19.5977 4.57625C19.6006 4.44433 19.6661 4.39155 19.8059 4.40035C20.3085 4.43553 20.8112 4.47364 21.3139 4.51762C21.4715 4.53228 21.5191 4.58798 21.525 4.74922C21.5221 4.88408 21.5191 5.01894 21.5191 5.1538Z" fill="black"/>
<path d="M3.41431 5.51155V4.85192C3.66713 4.81967 3.91102 4.78742 4.15492 4.7581C4.43153 4.72585 4.70814 4.69654 4.98476 4.67015C5.16322 4.65256 5.21081 4.69654 5.21675 4.8783C5.21973 4.9516 5.21973 5.02782 5.21675 5.10111C5.21081 5.26529 5.17511 5.3122 5.00855 5.33272C4.62784 5.37963 4.24712 5.41774 3.86641 5.46171C3.72364 5.47637 3.58384 5.49396 3.41431 5.51155Z" fill="black"/>
</svg>
