<svg width="20" height="26" viewBox="0 0 20 26" fill="none" xmlns="http://www.w3.org/2000/svg">
<path d="M8.99896 0.00403695C8.65732 0.636054 4.05213 9.16593 2.06843 12.8308C1.99968 12.9575 2.00497 13.0491 2.07213 13.1732C4.01564 16.7643 7.95449 24.049 7.99521 24.117C8.03593 24.0495 11.9748 16.7643 13.9183 13.1738C13.9854 13.0497 13.9913 12.958 13.922 12.8313C12.8098 10.7834 11.7051 8.73132 10.5929 6.68341C10.5215 6.55251 10.5167 6.45459 10.5908 6.32264C10.8965 5.77702 11.1894 5.22459 11.4993 4.65174C11.5432 4.72558 14.4905 10.1729 15.9358 12.8418C15.9966 12.9538 16.0019 13.0376 15.9395 13.1533C13.6523 17.3795 11.3687 21.6078 9.0878 25.8377C9.02699 25.9508 8.96511 26.0021 8.82655 26C8.26175 25.9906 7.69641 25.9932 7.1316 25.9984C7.02689 25.9995 6.97136 25.9665 6.92218 25.8743C4.62963 21.6235 2.33497 17.3738 0.0376599 13.1256C-0.00993626 13.0371 -0.014167 12.9711 0.0350157 12.8795C2.33285 8.63026 4.62699 4.38051 6.92482 0.132326C6.95391 0.0789158 7.02213 0.0103205 7.0729 0.00979687C7.70328 0.00089522 8.33367 0.00403695 8.99896 0.00403695Z" fill="black"/>
<path d="M11.6114 2.60667C10.5601 4.54671 7.66199 9.90655 6.08233 12.8258C6.01517 12.9504 6.01041 13.042 6.07916 13.1682C7.19132 15.2166 8.29608 17.2682 9.40824 19.3161C9.47964 19.4475 9.48334 19.5449 9.4093 19.6769C9.10363 20.2225 8.81065 20.7749 8.50021 21.3483C8.45896 21.2792 5.51223 15.8314 4.06372 13.1572C4.00291 13.0452 3.99815 12.9614 4.06055 12.8457C6.34728 8.62 8.63084 4.39172 10.9118 0.161863C10.9731 0.0482362 11.0355 -0.00203176 11.173 6.27477e-05C11.7378 0.00948802 12.3031 0.00686983 12.868 0.00163356C12.9732 0.00058631 13.0277 0.0346219 13.0774 0.126256C15.3705 4.37706 17.6651 8.62681 19.9624 12.875C20.0105 12.9635 20.0137 13.03 19.9645 13.1211C17.6672 17.3693 15.3731 21.619 13.0753 25.8672C13.0462 25.9206 12.978 25.9887 12.9272 25.9892C12.2968 25.9976 11.6664 25.9944 11.0059 25.9944C11.0493 25.9107 15.6566 17.3729 17.9322 13.1677C18.0009 13.041 17.9956 12.9493 17.928 12.8252C15.9844 9.23421 12.0456 1.94952 12.0049 1.88198C11.9975 1.89454 11.8531 2.16002 11.6114 2.60667Z" fill="black"/>
</svg>
